<svg xmlns="http://www.w3.org/2000/svg" viewBox="0 0 64 64">
  <path fill-rule="evenodd" d="M32 64c17.673 0 32-14.327 32-32C64 14.327 49.673 0 32 0 14.327 0 0 14.327 0 32c0 17.673 14.327 32 32 32zm11.25-18.875a1.875 1.875 0 1 0 0-3.75 1.875 1.875 0 0 0 0 3.75zm-6.875-1.875a1.875 1.875 0 1 1 3.75 0 1.875 1.875 0 0 1-3.75 0zm5-11.25a1.875 1.875 0 1 1 3.75 0 1.875 1.875 0 0 1-3.75 0zm-5 0a1.875 1.875 0 1 1 3.75 0 1.875 1.875 0 0 1-3.75 0zm15.122-5.625c.33-.57.504-1.217.503-1.875V17a3.75 3.75 0 0 0-3.75-3.75h-32.5A3.75 3.75 0 0 0 12 17v7.5c0 .658.173 1.305.503 1.875A3.731 3.731 0 0 0 12 28.25v7.5c0 .658.173 1.305.503 1.875A3.731 3.731 0 0 0 12 39.5V47a3.75 3.75 0 0 0 3.75 3.75h32.5A3.75 3.75 0 0 0 52 47v-7.5c0-.658-.173-1.305-.503-1.875.33-.57.504-1.217.503-1.875v-7.5c0-.658-.173-1.305-.503-1.875zM48.25 24.5h-32.5V17h32.5v7.5zm-32.5 3.75h32.5v7.5h-32.5v-7.5zm0 11.25h32.5V47h-32.5v-7.5zm29.375-18.75a1.875 1.875 0 1 1-3.75 0 1.875 1.875 0 0 1 3.75 0zm-5 0a1.875 1.875 0 1 1-3.75 0 1.875 1.875 0 0 1 3.75 0z"/>
</svg>
