<svg viewBox="0 0 32 32" xmlns="http://www.w3.org/2000/svg">
  <path fill-rule="evenodd" d="M16 32C24.8366 32 32 24.8366 32 16C32 7.16344 24.8366 0 16 0C7.16344 0 0 7.16344 0 16C0 24.8366 7.16344 32 16 32ZM4.35146 16.8016L12.1515 24.6465C12.6201 25.1178 13.3799 25.1178 13.8485 24.6465L27.6485 10.7671C28.1172 10.2958 28.1172 9.5316 27.6485 9.0603L25.9515 7.35348C25.4829 6.88217 24.7231 6.88217 24.2545 7.35348L13 18.6726L7.74554 13.388C7.27693 12.9166 6.51708 12.9166 6.04847 13.388L4.35146 15.0948C3.88285 15.5662 3.88285 16.3303 4.35146 16.8016Z" />
</svg>
