<svg xmlns="http://www.w3.org/2000/svg" viewBox="0 0 64 64">
  <path fill-rule="evenodd" d="M32 64c17.673 0 32-14.327 32-32C64 14.327 49.673 0 32 0 14.327 0 0 14.327 0 32c0 17.673 14.327 32 32 32zM17.318 41.07c1.574-4.147 4.348-5.31 7.403-5.507l6.704 5.586c.009.079.02.157.03.234.022.153.044.305.044.462 0 5.821-3.971 9.155-9.75 9.155C14.89 51 12 45.487 12 39.214c.156.107.395.284.683.498 1.083.803 2.856 2.118 3.525 2.118.502 0 .932-.287 1.111-.76zm26.497-27.817C44.64 12.511 45.723 12 46.878 12c2.14 0 4.121 1.572 4.121 3.774 0 1.23-.496 2.41-1.059 3.503-8.61 16.072-11.353 19.535-16.084 19.535-.59 0-1.156-.093-1.706-.23l-4.86-4.051a7.053 7.053 0 0 1-.666-2.948c0-3.233 1.01-4.117 9.104-11.195 2.155-1.886 4.812-4.21 8.087-7.135z"/>
</svg>
