<svg xmlns="http://www.w3.org/2000/svg" viewBox="0 0 323 175">
  <g fill="none" fill-rule="nonzero">
    <path fill="#0068A7" d="M322.185 164.055c0-9.552-4.869-17.295-10.875-17.295-3.775 0-7.1 3.06-9.05 7.704a5.489 5.489 0 0 0-2.079-.415c-1.818 0-3.499.928-4.87 2.497-1.758-5.791-5.485-9.786-9.799-9.786-4.034 0-7.553 3.495-9.43 8.683a5.954 5.954 0 0 0-3.722-1.394c-4.61 0-8.347 5.943-8.347 13.273a19.264 19.264 0 0 0 1.315 7.147h54.664c1.376-2.897 2.193-6.503 2.193-10.414z"/>
    <path fill="#F2F2F2" d="M283.195 64.185c-8.565-18.443-25.326-34.176-45.575-36.74-5.354-.678-10.943-.406-15.911 1.694-6.52 2.757-11.326 8.322-16.182 13.456a194.932 194.932 0 0 1-34.295 28.758c-6.172 4.067-12.791 7.861-20.118 8.902-14.691 2.086-29.222-7.886-35.922-21.066-4.185-8.233-6.119-17.9-9.503-26.463-3.896-.008-8.538-.006-13.533.017-13.805.063-25.042.266-25.042.266S80.47 15.4 92.106 21.923c3.718 2.085 7.613 3.946 11.192 5.513-2.033-3.893-4.598-7.396-8.127-10.212-6.957-5.554-16.38-7.111-25.288-6.698-9.354.434-18.794 2.927-26.395 8.372-13.541 9.698-19.133 26.77-23.92 42.677l11.569 5.773c4.962-4.27 12.218-8.494 18.906-4.744 11.635 6.525 25.001 10.857 25.001 10.857s-11.146-.1-24.951-.037c-2.319.01-4.562.025-6.695.042l128.434 64.089c42.362.594 74.302-1.686 114.555 0 2.099.088 6.821-10.866 6.837-13.749.111-20.317-1.464-41.18-10.029-59.621zm-41.133 5.527c-13.805.063-25.042.266-25.042.266s13.357-17.61 24.992-11.086c11.635 6.525 25.001 10.857 25.001 10.857s-11.146-.1-24.951-.037z"/>
    <path fill="#0068A7" d="M278.034 129.983c0-6.945-4.32-12.575-9.649-12.575-3.349 0-6.299 2.225-8.029 5.602a5.78 5.78 0 0 0-1.844-.302 6.298 6.298 0 0 0-4.32 1.815c-1.56-4.21-4.867-7.115-8.694-7.115-3.579 0-6.7 2.541-8.366 6.313a6.018 6.018 0 0 0-3.302-1.013c-4.09 0-7.405 4.32-7.405 9.65a11.825 11.825 0 0 0 1.166 5.197h48.497a15.148 15.148 0 0 0 1.946-7.572z" opacity=".3"/>
    <path fill="#2F2E41" d="M322.185 174.97H24.462v-.594h297.425zM297.723 138.149H0v-.594h297.425z"/>
    <path fill="#FFB8B8" d="M126.377 83.481s1.875-13.687 5-9.954c3.126 3.733 0 9.332 0 9.332l-2.5 3.111-2.5-1.866v-.623z"/>
    <path fill="#0068A7" d="M118.877 87.837s6.25-6.844 7.5-5.6c1.25 1.245 5 1.867 4.375 4.355-.625 2.489-13.75 10.577-13.75 10.577l1.875-9.332z"/>
    <path fill="#000" d="M118.877 87.837s6.25-6.844 7.5-5.6c1.25 1.245 5 1.867 4.375 4.355-.625 2.489-13.75 10.577-13.75 10.577l1.875-9.332z" opacity=".1"/>
    <path fill="#FFB8B8" d="M83.25 87.214v4.978s-.625 11.198 3.125 10.576c3.75-.622 1.876-9.954 1.876-9.954l-.626-5.6H83.25zM85.125 123.299s-5.625 8.71-7.5 9.332c-1.875.622-11.876 6.221-13.126 11.82l-8.75 11.199 4.375 5.599s20.001-21.153 25.626-23.019C91.376 136.364 97 127.031 97 127.031l-11.875-3.732zM129.502 108.989s11.876 1.867 10.001 9.333c-1.875 7.465-20.001 23.019-20.001 23.019l-.625 3.733-6.875 1.244-3.126-3.111.625-1.866s7.501-6.844 8.126-9.332c.625-2.489 7.5-12.443 10.625-13.065l-4.375-2.489 5.625-7.466z"/>
    <path fill="#2F2E41" d="M57.624 155.65s2.5-3.733-1.25-3.111c-3.75.622-6.25 1.245-6.25 3.733 0 2.489 3.125 19.909 6.875 18.664 3.75-1.244.625-6.843.625-6.843s1.875-4.977 3.125-5.599c1.25-.623 1.25-3.733 0-3.733s-3.75-1.867-3.125-3.111zM110.751 141.963s0-3.111-2.5 0-3.75 5.599-1.25 7.466c2.5 1.866 11.251 6.221 11.251 6.221s9.375 1.866 8.125-2.489c0 0-6.25-3.11-6.25-5.599 0-2.488 0-6.843-1.875-5.599-1.875 1.244-7.501 1.866-7.501 0zM98.876 95.302s-8.75 1.244-8.125 13.687c0 0-11.25 11.199-8.126 14.932 3.126 3.733 10 10.576 12.5 8.71 2.501-1.867 10.001-16.176 10.001-16.176s17.501 6.222 20.626 3.111 6.25-10.577 6.25-10.577l-15.625-8.087-17.501-5.6z"/>
    <path fill="#FFB8B8" d="M123.252 59.84c4.142 0 7.5-3.342 7.5-7.466 0-4.123-3.358-7.465-7.5-7.465-4.142 0-7.5 3.342-7.5 7.465 0 4.124 3.358 7.466 7.5 7.466z"/>
    <path fill="#FFB8B8" d="M117.627 52.997s-4.375 6.843-5.626 7.465c-1.25.622 8.751 6.844 8.751 6.844s0-8.088 3.125-9.954l-6.25-4.355z"/>
    <path fill="#0068A7" d="M117.002 59.84s-10.001-3.11-11.876 1.867-6.25 14.309-5.625 20.53c.625 6.222 1.875 4.977 0 6.844-1.875 1.866-3.125.622-2.5 3.11.625 2.49 1.25 2.49.625 3.733-.625 1.245 7.5 5.6 14.376 6.222l6.875.622s0-11.199 1.25-13.687c1.25-2.489 3.75-7.466 3.75-9.332V74.81c0-3.287-.862-6.517-2.5-9.37 0 0-3.75-5.6-4.375-5.6z"/>
    <path fill="#0068A7" d="M109.501 62.329s-23.126 1.866-25.626 8.088c-2.5 6.221-3.75 18.664-1.25 18.664s5.626 1.244 6.25 0c.626-1.244 3.126-13.687 3.75-13.687.626 0 19.377-1.867 19.377-1.867s8.125-9.954-2.501-11.198z"/>
    <path fill="#2F2E41" d="M123.553 50.524s1.991-3.443 4.479-.453 6.535-2.505 5.914-3.678c-.622-1.172-2.816.053-6.576-1.17-3.76-1.224-11.003-3.716-12.216 4.414-1.213 8.131 1.676 7.279 1.676 7.279s1.324-7.205 2.521-5.135l1.197 2.069 1.038.254 1.967-3.58zM194.298 31.472c5.054 0 9.151-4.078 9.151-9.108s-4.097-9.109-9.151-9.109c-5.053 0-9.15 4.078-9.15 9.109 0 5.03 4.097 9.108 9.15 9.108z"/>
    <path fill="#9F616A" d="M191.373 29.106s.474 8.484-.473 8.484 5.919 4.006 5.919 4.006l4.262-2.356v-2.828s-5.683-.707-3.315-6.835c2.368-6.127-6.393-.471-6.393-.471zM171.485 122.197l-.711 7.07 2.368.707 1.894-1.885.711-5.892zM205.579 126.204l1.184 4.477 3.315 2.121 3.551-1.885-4.025-6.599z"/>
    <path fill="#9F616A" d="M193.623 32.759c3.792 0 6.866-3.06 6.866-6.835 0-3.774-3.074-6.834-6.866-6.834-3.793 0-6.867 3.06-6.867 6.834 0 3.775 3.074 6.835 6.867 6.835zM189.479 51.495l-1.657-.707s-2.841-1.65-3.078-4.95c-.237-3.299 2.367-7.54 2.367-7.54l3.789-1.18 4.451 3.607.047 5.82-5.919 4.95z"/>
    <path fill="#9F616A" d="M187.822 38.769l-.947-.472s-4.736-.236-5.209 5.42c-.474 5.657-2.131 15.084-2.131 15.084s-3.788 6.599-3.552 13.669l-1.894 6.127s-2.604 8.956.474 8.956c3.078 0 2.841-9.663 2.841-9.663s5.682-13.669 6.156-16.026c.474-2.356 4.499-13.433 3.315-16.497-1.184-3.063.947-6.598.947-6.598zM191.373 53.616v2.592s1.658 1.886.948 3.064c-.711 1.178-1.421 3.535-1.421 3.535l3.315 5.185 11.128.943 2.213-14.758-16.183-.561zM201.791 37.119l1.894-.943s4.025-2.828 7.34-3.3l10.181-6.834 6.63-15.79s-.237-8.484 1.657-7.542c1.894.943 1.657 8.249 1.657 8.249s-3.551 14.612-6.629 18.618c-3.078 4.007-14.206 10.605-14.206 10.605s-3.078 3.536-2.841 5.185c.236 1.65-5.683-8.248-5.683-8.248z"/>
    <path fill="#2F2E41" d="M193.031 62.807s-2.605-1.65-4.262 1.178c-1.658 2.829-4.736 3.536-6.63 12.02-1.894 8.484-6.392 21.918-7.576 22.86-1.184.943-6.156 10.841-3.315 24.746h4.735l4.025-20.032s13.023-16.026 13.97-22.625l4.261 24.746s.237 9.427 3.789 13.905l3.788 8.955 4.972-2.357-5.682-22.624s2.841-22.86.947-29.224l-.272-8.342s-7.778.33-12.75-3.206zM173.142 128.089h-2.841c-.474 0-4.262 3.064-2.604 4.713 1.657 1.65 4.261 4.714 4.261 4.714s9.234 1.169 9.471-.481c.237-1.649-4.025-5.175-4.025-5.175l-1.184-3.771s-2.367-2.592-3.078 0zM210.788 130.446s-4.025-.236-4.735-.472c-.71-.235-2.131 6.128 0 6.599 2.131.472 10.891 1.179 10.891 1.179s6.866-.236 6.393-2.121c-.474-1.886-9.708-5.657-9.708-5.657s-1.183-2.356-2.841.472z"/>
    <path fill="#0068A7" d="M192.084 36.883l-1.184-.707-1.421 1.178s4.262 2.828 3.315 5.42c-.947 2.593-4.972 8.014-4.972 8.014s3.551 4.006 3.551 5.42c0 0 9.234-3.3 16.1 0 0 0 0-4.713.948-5.656.947-.943 1.42-4.242-.948-7.07a51.61 51.61 0 0 1-4.498-6.599l-2.368-1.414-1.219.385s2.403 2.679.035 2.914c-2.367.236-6.156-.47-7.339-1.885z"/>
    <path fill="#2F2E41" d="M200.986 6.835a5.007 5.007 0 0 1-3.102 1.617c-2.068.294-.443 3.53-.443 3.53s-.591-1.177.591-2.206c1.182-1.03 2.954-1.618 2.954-2.941z"/>
    <path fill="#2F2E41" d="M196.999 15.197a2.544 2.544 0 0 0 2.55-2.539 2.544 2.544 0 0 0-2.55-2.538 2.545 2.545 0 0 0-2.551 2.538 2.545 2.545 0 0 0 2.551 2.539z"/>
    <path fill="#0068A7" d="M199.976 15.158c-1.97-1.025-5.36-1.83-7.16-1.773l.455-1.733c1.594 1.078 4.966 1.898 7.16 1.772l-.455 1.734z"/>
    <path fill="#2F2E41" d="M195.906 15.31s-3.105 3.973-9.314 4.856-1.331 10.595-1.331 10.595-1.774-3.531 1.774-6.621c3.549-3.09 8.871-4.857 8.871-8.83z"/>
    <path fill="#2F2E41" d="M196.142 15.075s1.774 6.18 4.435 7.063c2.661.883 1.331 10.153-3.104 11.037 0 0 3.77-5.077 1.552-9.05-2.217-3.974-3.548-7.064-2.883-9.05zM237.898 4.713h-16.337v1.886h16.337z"/>
    <path fill="#2F2E41" d="M237.898 11.312c.785 0 1.421-2.532 1.421-5.656 0-3.124-.636-5.656-1.421-5.656-.784 0-1.42 2.532-1.42 5.656 0 3.124.636 5.656 1.42 5.656zM221.561 11.312c.785 0 1.421-2.532 1.421-5.656 0-3.124-.636-5.656-1.421-5.656-.784 0-1.42 2.532-1.42 5.656 0 3.124.636 5.656 1.42 5.656zM246.185 131.511h-16.337v1.885h16.337z"/>
    <path fill="#2F2E41" d="M246.185 138.11c.785 0 1.421-2.533 1.421-5.657 0-3.123-.636-5.656-1.421-5.656s-1.421 2.533-1.421 5.656c0 3.124.636 5.657 1.421 5.657zM229.848 138.11c.785 0 1.421-2.533 1.421-5.657 0-3.123-.636-5.656-1.421-5.656-.784 0-1.421 2.533-1.421 5.656 0 3.124.637 5.657 1.421 5.657z"/>
    <path fill="#0068A7" d="M57.874 129.983c0-6.945-4.32-12.575-9.649-12.575-3.349 0-6.299 2.225-8.029 5.602a5.78 5.78 0 0 0-1.844-.302 6.297 6.297 0 0 0-4.32 1.815c-1.56-4.21-4.867-7.115-8.694-7.115-3.58 0-6.7 2.541-8.366 6.313a6.017 6.017 0 0 0-3.303-1.013c-4.09 0-7.405 4.32-7.405 9.65a11.817 11.817 0 0 0 1.167 5.197h48.497a15.151 15.151 0 0 0 1.946-7.572z" opacity=".3"/>
  </g>
</svg>
