<svg xmlns="http://www.w3.org/2000/svg" viewBox="0 0 64 64">
  <path fill-rule="evenodd" d="M32 64c17.673 0 32-14.327 32-32C64 14.327 49.673 0 32 0 14.327 0 0 14.327 0 32c0 17.673 14.327 32 32 32zm-7.977-13.421l4.765 1.383a.936.936 0 0 0 1.165-.64l10.664-36.735a.939.939 0 0 0-.641-1.164L35.21 12.04a.939.939 0 0 0-1.164.64L23.382 49.416c-.14.5.14 1.023.64 1.164zm-.742-11.008l-3.399 3.625a.931.931 0 0 1-1.328.04L7.296 32.68a.931.931 0 0 1 0-1.368l11.258-10.546a.938.938 0 0 1 1.328.039l3.399 3.625a.93.93 0 0 1-.063 1.343l-7.078 6.227 7.078 6.227c.399.351.422.96.063 1.343zm33.422-6.883L45.445 43.243a.939.939 0 0 1-1.328-.047l-3.399-3.625a.93.93 0 0 1 .063-1.343L47.859 32l-7.078-6.234a.937.937 0 0 1-.063-1.344l3.399-3.625a.946.946 0 0 1 1.328-.04l11.258 10.563c.398.367.398 1 0 1.367z"/>
</svg>
