<svg xmlns="http://www.w3.org/2000/svg" viewBox="0 0 319 176">
  <g fill="none" fill-rule="nonzero">
    <path fill="#F2F2F2" d="M109.577 109.143c.327-.658.872-1.178 1.325-1.759a2.322 2.322 0 0 1-.205.153 3.404 3.404 0 0 0-.918.578 1.897 1.897 0 0 0-.331.78l-.781 3.031c.154-.193.307-.382.463-.572a5.34 5.34 0 0 1 .447-2.211zM183.274 111.189a3.457 3.457 0 0 1-.306.988 13.751 13.751 0 0 1-.518 3.805 11.74 11.74 0 0 0-.321 1.587c-.723 4.936-1.421 10.093-.187 14.876.09-.29.251-.553.469-.765.814-1 1.135-2.303 1.377-3.569 1.271-6.67.919-13.475.613-20.289a2.249 2.249 0 0 0-.668-.502c.014.297.007.594-.021.89-.096 1-.242 1.994-.438 2.979zM140.347 109.152a3.135 3.135 0 0 0-.239-1.162 3.577 3.577 0 0 0-.594-.82l-.661-.752c-.337 7.988-1.053 15.999.435 23.822.241 1.266.563 2.569 1.377 3.569.218.212.379.475.469.765 1.224-4.771.535-9.94-.187-14.876a11.605 11.605 0 0 0-.322-1.588 15.165 15.165 0 0 1-.373-6.144c.124-.933.155-1.875.095-2.814zM144.137 92.291c.885 1.456 1.436 3.18 1.932 4.83l.211.712c-.101-2.416-.15-4.835-.168-7.255-.478.424-.959.843-1.442 1.257l-.533.456zM151.255 173.82a16.326 16.326 0 0 0-.389-5.053c-.269-1.049-.686-2.074-.723-3.153a9.65 9.65 0 0 1 .264-2.141c1.258-6.395 1.8-13.118-.104-19.351-.512-1.67-1.188-3.284-1.709-4.948a12.039 12.039 0 0 1-.863 1.804 1.863 1.863 0 0 0-1.044-1.223c.014.297.007.594-.021.89a29.914 29.914 0 0 1-.426 2.979 3.03 3.03 0 0 1-.376 1.116 2.524 2.524 0 0 1-.986.814c.177.403.355.804.529 1.223l-1.276.361c.839 1.835.141 3.93-.306 5.878-1.601 6.787-.16 14.035-.919 20.898l8.349-.094zM146.62 76.724c.327-.658.872-1.178 1.325-1.759a2.393 2.393 0 0 1-.205.153 3.393 3.393 0 0 0-.918.578 1.894 1.894 0 0 0-.331.78l-.781 3.03c.154-.192.307-.382.463-.571a5.34 5.34 0 0 1 .447-2.211zM177.39 76.733a3.134 3.134 0 0 0-.239-1.162 3.582 3.582 0 0 0-.594-.82l-.661-.752c-.331 7.869-1.029 15.757.373 23.467.248-.835.499-1.667.747-2.499a25.459 25.459 0 0 1 1.473-4.003 133.546 133.546 0 0 0-.499-3.686 11.747 11.747 0 0 0-.321-1.587 15.15 15.15 0 0 1-.374-6.144c.124-.933.156-1.875.095-2.814zM164.039 136.852l-1.047 36.839 2.755-.031c-.485-4.483-.706-8.99-.661-13.5 0-1.312.046-2.639-.227-3.92-.193-.897-.529-1.756-.713-2.655a15.86 15.86 0 0 1-.205-3.257l.098-13.476zM140.362 136.874c.043-.104.086-.202.126-.306.144-.373.272-.749.392-1.129l-.025.043c-.242.398-.505.78-.777 1.156.098.074.192.153.284.236zM57.077 95.695a3.122 3.122 0 0 0-.239-1.162 3.614 3.614 0 0 0-.594-.82l-.661-.752c-.337 7.988-1.053 15.998.435 23.822.241 1.266.563 2.569 1.377 3.569.218.212.38.475.469.765 1.224-4.771.535-9.94-.187-14.876a11.697 11.697 0 0 0-.306-1.588c-.55-2-.681-4.091-.39-6.144.125-.933.156-1.875.096-2.814zM57.092 123.417c.043-.104.086-.202.126-.306.143-.373.272-.75.391-1.129l-.024.043c-.242.398-.505.78-.778 1.156.098.074.193.153.285.236zM43.726 155.814c-.18 6.393-.361 12.785-.545 19.177l1.314-.015c-.196-.814-.487-1.606-.656-2.429a15.867 15.867 0 0 1-.205-3.257l.092-13.476zM63.395 174.287a2.52 2.52 0 0 1-.985-.813 3.017 3.017 0 0 1-.377-1.117 29.575 29.575 0 0 1-.425-2.978 6.168 6.168 0 0 1-.022-.89 1.871 1.871 0 0 0-1.044 1.223 14.252 14.252 0 0 1-1.72-5.123c-.092.306-.187.642-.306.964-.637 1.893-1.562 3.725-1.745 5.713a11.308 11.308 0 0 0 .306 3.569l6.08-.064.238-.484zM67.394 164.188c.12.38.248.756.392 1.129.04.104.082.202.125.306a4.24 4.24 0 0 1 .285-.236 17.181 17.181 0 0 1-.778-1.156l-.024-.043zM111.254 170.55a37.83 37.83 0 0 1-.878-5.539 55427.019 55427.019 0 0 1-1.497-13.812c-.019.059-.034.117-.052.175-.371 1.085-1.105 2.003-1.837 2.896-.732.893-1.647 1.814-2.722 1.554a2.937 2.937 0 0 1-1.166-.722l-2.449-2.113a58.685 58.685 0 0 1-1.442-1.257 198.337 198.337 0 0 1-.242 8.848c-.049.917-.126 1.905-.566 2.722a31.118 31.118 0 0 1 1.487 8.667c.022.798 0 1.594-.024 2.392l7.176-.077h.043l5.397-.058c-.45-1.205-.903-2.419-1.228-3.676zM99.131 140.103c.153.19.306.38.463.572l-.781-3.018a1.904 1.904 0 0 0-.33-.78 3.38 3.38 0 0 0-.92-.578 2.78 2.78 0 0 1-.204-.153c.453.581.998 1.101 1.325 1.758.303.694.455 1.443.447 2.199zM108.006 126.668c.193 2.122.306 4.254.413 6.386.108 2.131.218 4.208.325 6.312.25-1.627.628-3.231 1.133-4.798-.441-.817-.518-1.79-.567-2.722-.153-2.946-.22-5.897-.242-8.848a47.38 47.38 0 0 1-1.42 1.223c.178.806.298 1.624.358 2.447zM67.335 148.459c-.722 4.936-1.42 10.093-.186 14.876.09-.29.25-.553.468-.764.814-1 1.136-2.303 1.378-3.57 1.488-7.823.771-15.833.434-23.822l-.652.753a3.624 3.624 0 0 0-.612.807 3.125 3.125 0 0 0-.248 1.15c-.06.937-.028 1.877.095 2.808a15.147 15.147 0 0 1-.364 6.162c-.141.526-.246 1.06-.313 1.6zM178.039 173.529l2.4-.028c-1.28-7.361.566-15.267-1.172-22.632-.273-1.147-.613-2.349-.698-3.514-.613 1.627-1.314 3.23-1.473 4.948-.279 2.979 1.124 5.83 1.644 8.772.716 4.058-.254 8.197-.686 12.295-.006.07-.009.107-.015.159zM260.568 169.837c-2.78-8.276 0-17.503-2.011-25.996-.463-1.948-1.161-4.059-.306-5.879l-1.277-.388c.174-.404.352-.804.53-1.223a3.201 3.201 0 0 1-.686-.471l-.937 8.627a37.832 37.832 0 0 1-.879 5.539c-.529 2.037-1.389 3.976-2.005 5.98-1.644 5.373-1.463 11.108-.578 16.686l9.184-.101c-.337-.917-.72-1.838-1.035-2.774zM256.273 88.03l.024-.085.111-.358a3.978 3.978 0 0 0-.864-.541 2.585 2.585 0 0 1-.205-.153c.303.385.643.746.934 1.138zM225.362 114.948c.119.379.248.755.392 1.128.04.104.082.202.125.306.092-.082.187-.162.285-.235a17.684 17.684 0 0 1-.778-1.156l-.024-.043zM263.088 121.077c.939-4.93 1.001-9.934.832-14.962a1.946 1.946 0 0 1-1.674.483l-.052-.015a13 13 0 0 1-.444 2.364 11.605 11.605 0 0 0-.322 1.588c-.722 4.936-1.42 10.092-.187 14.876.09-.29.251-.553.469-.765.814-1 1.136-2.303 1.378-3.569zM126.965 174.083c0-1.603.011-3.207.031-4.811-.047 1.606-.092 3.211-.135 4.814l.104-.003z"/>
    <path fill="#F2F2F2" d="M317.743 41.405a48.348 48.348 0 0 0-.726-3.398c-2.969-11.995-9.922-21.568-22.654-26.749a46.38 46.38 0 0 0-3.404-1.223 57.95 57.95 0 0 0-8.193-1.958c-26.707-4.462-49.166-2.34-69.411 1.685-1.142.224-2.275.46-3.404.698-28.379 5.991-52.546 15.274-78.332 14.463a97.797 97.797 0 0 1-3.401-.162c-11.242-.746-22.839-3.496-35.259-9.343-14.68-6.91-29.607-4.588-43.074 3.639-7.601 4.637-14.737 11.157-21.102 18.962l-.021.025a120.227 120.227 0 0 0-2.645 3.364C5.407 68.898-6.093 110.002 3.34 141.856a67.64 67.64 0 0 0 1.102 3.401c2.725 7.765 6.778 14.903 12.337 21.063a26.46 26.46 0 0 0 11.968 7.57c.79.241 1.595.443 2.409.611.23-3.865-.037-7.731-1.167-11.426-.612-2.009-1.475-3.942-2.005-5.979a37.845 37.845 0 0 1-.878-5.539L25.648 138.1c-.306-2.771-.612-5.551-.53-8.334a31.135 31.135 0 0 1 1.489-8.668c-.441-.816-.518-1.789-.567-2.722-.153-2.945-.22-5.896-.242-8.848-.477.424-.958.843-1.442 1.257l-2.464 2.114a2.933 2.933 0 0 1-1.166.721c-1.075.26-2.027-.694-2.722-1.553-.695-.86-1.457-1.811-1.837-2.897a9.057 9.057 0 0 1-.334-3.107c.025-1.343.092-2.682.163-4.022l.588-11.178c.11-2.141.22-4.264.413-6.386.138-1.53.334-3.086 1.12-4.39 1.479-2.446 4.65-3.302 7.531-3.094a1.073 1.073 0 0 1-.027-.918c.18-.274.438-.487.74-.611l4.25-2.273a2.36 2.36 0 0 1 .998-.352c.188-.006.375.033.545.114l.823-.575c.185-.144.392-.257.613-.334.276-.07.567-.055.835.04a3.34 3.34 0 0 0 .352-1.324 4.71 4.71 0 0 0-.36-1.67 8.073 8.073 0 0 1-3.203-6.365c-.918-.514-2.1-.804-2.474-1.887-.254-.734.05-1.547-.055-2.318a1.874 1.874 0 0 1-.453-.713c-.263-.764.08-1.615-.061-2.41-.08-.434-.306-.865-.217-1.3.09-.307.256-.587.483-.813l3.01-3.563c.664-.783 1.35-1.587 2.262-2.055 2.186-1.12 4.803 0 7.259 0 .823 0 1.674-.126 2.449.137a5.116 5.116 0 0 1 1.512.96l3.368 2.753c1.132.918 2.354 2.013 2.464 3.468.026.441-.039.882-.19 1.297.391.501.632 1.102.695 1.734.077 1.01-.413 1.973-.976 2.814a14.903 14.903 0 0 1-3.062 3.318 8.062 8.062 0 0 1-1.938 3.894c.222 1.068.512 2.12.87 3.15a.367.367 0 0 1 .021.052c.286.016.562.113.796.278.242.18.464.385.661.612a.943.943 0 0 1 .447-.373c.453-.184.962.024 1.405.226 1.35.612 2.725 1.248 3.824 2.242.401.363.739.791.998 1.266a6.29 6.29 0 0 1 4.415.994c2.314 1.584 3.266 4.478 4.071 7.163l1.804 6.022c.79 2.64 1.585 5.303 1.77 8.05.168 2.502-.175 5.003-.518 7.484-.475 3.431.643 7.199.658 10.664 0 .89 0 1.79-.022 2.692a6.288 6.288 0 0 1 4.18-.884c.259-.475.596-.903.997-1.266 1.1-.994 2.474-1.624 3.824-2.242.444-.202.952-.41 1.405-.226a.938.938 0 0 1 .447.373 4.21 4.21 0 0 1 .661-.612 1.53 1.53 0 0 1 .796-.278.379.379 0 0 1 .022-.052c.357-1.03.648-2.083.87-3.15a8.062 8.062 0 0 1-1.939-3.894 14.89 14.89 0 0 1-3.061-3.318c-.563-.841-1.053-1.805-.977-2.814a3.362 3.362 0 0 1 .695-1.734 3.227 3.227 0 0 1-.19-1.297c.11-1.456 1.332-2.544 2.465-3.468l3.367-2.753a5.116 5.116 0 0 1 1.513-.96c.777-.263 1.629-.138 2.449-.138 2.45 0 5.073-1.113 7.258 0 .919.468 1.599 1.273 2.263 2.056l3.01 3.563a1.9 1.9 0 0 1 .483.813c.086.435-.138.866-.217 1.3-.141.795.202 1.646-.062 2.41-.094.269-.25.513-.453.713-.104.77.2 1.584-.055 2.318-.373 1.083-1.549 1.373-2.473 1.887a8.07 8.07 0 0 1-3.2 6.337 4.709 4.709 0 0 0-.36 1.67c.024.461.144.912.351 1.324.269-.095.56-.109.836-.039.22.077.428.189.612.333l.824.575c.17-.081.357-.12.545-.113.355.04.696.16.998.351l4.249 2.273c.186.096.36.212.52.345.034-.822.07-1.648.114-2.471l.597-11.175c.11-2.141.22-4.264.413-6.386.138-1.53.334-3.086 1.12-4.389 1.479-2.447 4.651-3.303 7.531-3.095a1.064 1.064 0 0 1-.116-.456 1.063 1.063 0 0 1 .089-.462c.179-.273.438-.487.741-.611l4.249-2.273a2.36 2.36 0 0 1 .998-.352c.188-.006.375.033.545.114l.823-.575c.185-.144.392-.257.613-.334.276-.07.567-.055.835.04.208-.412.328-.863.353-1.324a4.702 4.702 0 0 0-.362-1.67 8.079 8.079 0 0 1-3.202-6.365c-.918-.514-2.1-.804-2.474-1.887-.254-.734.049-1.547-.055-2.318a1.88 1.88 0 0 1-.453-.713c-.263-.764.08-1.614-.061-2.41a7.68 7.68 0 0 1-.233-1.049 8.804 8.804 0 0 0-.765 1.982c-.432 1.734-.355 3.551-.612 5.319-.092.611-.267 1.266-.784 1.587-.401.25-.918.23-1.35.41-.723.306-1.124 1.1-1.225 1.875-.101.773.022 1.56.022 2.342 0 2.047-.983 4.163-2.771 5.16-2.354 1.315-5.278.444-7.822-.45a6.903 6.903 0 0 0 2.92-2.024l-2.797-.566a18.122 18.122 0 0 0 4.46-2.958 3.832 3.832 0 0 0 1.139-1.492c.306-.86.022-1.835.306-2.694.475-1.472 2.278-2.028 3.196-3.27.806-1.083.833-2.535.83-3.881l-.015-5.132c0-1.477.095-3.18 1.273-4.077 1.314-1 3.175-.431 4.828-.44 1.742 0 3.401-.725 5.134-.918 1.635-.187 4.363.957 4.317 2.254.91.161 1.831.256 2.755.285.823 0 1.674-.126 2.449.137a5.101 5.101 0 0 1 1.512.96l3.368 2.753c1.133.918 2.354 2.013 2.449 3.468.026.441-.039.882-.19 1.297.391.501.632 1.102.695 1.734.077 1.01-.413 1.973-.976 2.814a14.912 14.912 0 0 1-3.062 3.318 8.059 8.059 0 0 1-1.938 3.894c.222 1.067.512 2.12.87 3.15a.463.463 0 0 1 .021.052c.286.016.562.113.796.278.242.18.464.385.661.612a.946.946 0 0 1 .447-.373c.453-.184.962.024 1.406.226a16.99 16.99 0 0 1 3.367 1.866v-.187c.025-1.343.092-2.682.162-4.022l.613-11.194c.11-2.14.22-4.263.413-6.386.138-1.529.334-3.085 1.12-4.388 1.479-2.447 4.651-3.303 7.531-3.095a1.079 1.079 0 0 1-.027-.918c.179-.274.438-.487.741-.612l4.249-2.272a2.36 2.36 0 0 1 .998-.352c.188-.006.375.033.545.113l.823-.575c.185-.143.392-.256.613-.333.276-.07.567-.056.835.04.208-.413.328-.864.352-1.325a4.701 4.701 0 0 0-.361-1.67 8.078 8.078 0 0 1-3.202-6.364c-.918-.514-2.1-.804-2.474-1.887-.254-.734.049-1.548-.055-2.318a1.88 1.88 0 0 1-.453-.713c-.263-.765.08-1.615-.061-2.41-.08-.434-.306-.866-.217-1.3.09-.307.256-.587.483-.813l3.01-3.563c.664-.783 1.35-1.588 2.262-2.056 2.186-1.12 4.803 0 7.259 0 .823 0 1.674-.125 2.449.138a5.118 5.118 0 0 1 1.512.96l3.368 2.753c1.132.917 2.354 2.012 2.449 3.468.026.44-.039.882-.19 1.297.391.5.632 1.102.695 1.734.076 1.01-.413 1.973-.977 2.814a14.91 14.91 0 0 1-3.061 3.318 8.058 8.058 0 0 1-1.938 3.893c.221 1.068.512 2.12.869 3.15a.338.338 0 0 1 .022.053c.286.016.562.113.796.278.242.18.463.385.661.612a.942.942 0 0 1 .447-.373c.453-.184.961.024 1.405.226 1.35.612 2.725 1.248 3.824 2.242.401.363.738.791.998 1.266a6.29 6.29 0 0 1 4.43.994c2.314 1.584 3.266 4.477 4.071 7.163l1.804 6.022c.79 2.64 1.585 5.303 1.769 8.05.156 2.336-.135 4.676-.453 6.997.077-.08.153-.159.239-.235 1.099-.994 2.473-1.624 3.824-2.242.443-.202.952-.41 1.405-.226a.946.946 0 0 1 .447.373 4.14 4.14 0 0 1 .661-.612c.234-.165.51-.262.796-.278a.47.47 0 0 1 .021-.052c.358-1.03.648-2.083.87-3.15a8.059 8.059 0 0 1-1.938-3.894 14.884 14.884 0 0 1-3.061-3.318c-.564-.841-1.054-1.805-.977-2.814a3.36 3.36 0 0 1 .695-1.734 3.234 3.234 0 0 1-.19-1.297c.11-1.456 1.332-2.544 2.449-3.468l3.368-2.753a5.105 5.105 0 0 1 1.512-.96c.778-.263 1.629-.138 2.449-.138a19.23 19.23 0 0 0 2.755-.284c-.045-1.297 2.682-2.447 4.317-2.254 1.73.199 3.392.917 5.134.917 1.653 0 3.514-.56 4.828.44 1.178.897 1.276 2.6 1.273 4.078l.013 5.15c0 1.346.024 2.798.829 3.881.876 1.18 2.55 1.746 3.117 3.059.692-1.777 1.628-3.426 3.178-4.484a6.29 6.29 0 0 1 4.393-1.015c.259-.475.597-.903.998-1.267 1.099-.994 2.473-1.624 3.823-2.242.444-.201.952-.41 1.406-.226a.94.94 0 0 1 .446.373 4.19 4.19 0 0 1 .662-.611c.234-.166.51-.262.796-.279a.47.47 0 0 1 .021-.052c.358-1.03.648-2.082.87-3.15a8.059 8.059 0 0 1-1.938-3.893 14.89 14.89 0 0 1-3.062-3.319c-.563-.84-1.053-1.804-.976-2.813a3.36 3.36 0 0 1 .695-1.735 3.217 3.217 0 0 1-.19-1.296c.11-1.456 1.332-2.545 2.449-3.469l3.368-2.752a5.103 5.103 0 0 1 1.512-.96c.777-.264 1.628-.138 2.449-.138a19.216 19.216 0 0 0 2.755-.285c-.046-1.296 2.682-2.446 4.317-2.254 1.729.2 3.392.918 5.134.918 1.653 0 3.514-.56 4.828.44 1.178.896 1.276 2.6 1.273 4.077l.012 5.142c0 1.345.025 2.798.83 3.88.918 1.242 2.722 1.799 3.196 3.27.276.862 0 1.835.306 2.694.25.585.642 1.097 1.139 1.493a18.008 18.008 0 0 0 2.189 1.688c.126-.407.322-.788.579-1.128a3.217 3.217 0 0 1-.19-1.297c.11-1.456 1.332-2.545 2.449-3.468l3.367-2.753a5.12 5.12 0 0 1 1.513-.96c.777-.263 1.628-.138 2.449-.138 2.449 0 5.073-1.113 7.258 0 .919.468 1.599 1.273 2.263 2.055l3.009 3.563c.228.227.394.506.484.814.086.434-.138.866-.217 1.3-.141.795.202 1.645-.062 2.41a1.855 1.855 0 0 1-.453.712c-.104.771.199 1.585-.055 2.319-.373 1.082-1.549 1.373-2.473 1.887a8.076 8.076 0 0 1-3.2 6.337 4.723 4.723 0 0 0-.361 1.67c.025.46.145.912.352 1.324.269-.095.56-.109.836-.04.221.077.428.19.612.334l.824.575c.17-.081.357-.12.545-.113.355.04.696.16.998.351l4.249 2.273c.303.124.561.337.741.611a1.078 1.078 0 0 1-.028.918c2.881-.208 6.053.645 7.531 3.095.787 1.303.983 2.872 1.121 4.389.193 2.122.306 4.254.413 6.386l.579 11.206c.07 1.339.137 2.679.162 4.022a9.06 9.06 0 0 1-.334 3.107c-.37 1.086-1.105 2.003-1.837 2.896-.731.893-1.647 1.814-2.721 1.554a2.923 2.923 0 0 1-1.167-.722l-2.464-2.113a59.43 59.43 0 0 1-1.442-1.257 197.696 197.696 0 0 1-.242 8.848c-.049.917-.125 1.905-.566 2.722a31.143 31.143 0 0 1 1.488 8.667 54.781 54.781 0 0 1-.404 7.185c.257-.545.515-1.095.774-1.652 13.299-28.388 28.639-69.316 23.417-98.166z"/>
    <path fill="#F2F2F2" d="M26.19 95.45l-.78 3.031c.153-.192.306-.382.462-.572a5.35 5.35 0 0 1 .435-2.21c.327-.659.872-1.178 1.325-1.76a2.546 2.546 0 0 1-.205.153 3.388 3.388 0 0 0-.918.579c-.163.232-.272.499-.319.78zM213.934 109.213l.462.572-.781-3.018a1.903 1.903 0 0 0-.33-.78 3.37 3.37 0 0 0-.919-.578 2.798 2.798 0 0 1-.205-.153c.453.581.998 1.101 1.326 1.758.303.694.455 1.443.447 2.199zM262.004 127.698c.092-.082.186-.162.284-.235a17.67 17.67 0 0 1-.777-1.156l-.025-.043c.12.379.248.755.392 1.129.04.104.074.201.126.305zM182.196 133.298c.119.38.248.756.392 1.129.04.104.083.202.125.306.092-.083.187-.162.285-.236a17.025 17.025 0 0 1-.777-1.156l-.025-.043zM208.592 74.041a8.076 8.076 0 0 1-3.2 6.338 4.723 4.723 0 0 0-.361 1.67c.025.46.145.911.352 1.324.269-.096.56-.11.836-.04.221.077.428.19.612.333l.824.575c.17-.08.357-.12.545-.113.355.04.696.16.998.352l4.249 2.272c.303.125.561.338.741.612a1.078 1.078 0 0 1-.028.917 11.187 11.187 0 0 1 2.728.135 45.38 45.38 0 0 1 1.271-5.059 6.294 6.294 0 0 1-1.562-4.196c0-.783.126-1.569.022-2.343-.104-.773-.505-1.575-1.225-1.874-.438-.18-.949-.16-1.35-.41-.517-.306-.692-.985-.784-1.588-.266-1.767-.19-3.584-.612-5.318a8.805 8.805 0 0 0-.765-1.982 7.682 7.682 0 0 1-.233 1.05c-.141.794.202 1.645-.061 2.41a1.88 1.88 0 0 1-.453.712c-.104.77.199 1.584-.055 2.318-.389 1.095-1.565 1.386-2.489 1.905zM225.304 99.218c-.723 4.937-1.421 10.093-.187 14.876.09-.29.251-.553.468-.764.815-1 1.136-2.303 1.378-3.569 1.488-7.824.771-15.834.435-23.822l-.652.752c-.241.24-.447.51-.613.808a3.137 3.137 0 0 0-.248 1.15 14.4 14.4 0 0 0 .095 2.807 15.15 15.15 0 0 1-.364 6.163 11.6 11.6 0 0 0-.312 1.6zM220.644 124.548a1.89 1.89 0 0 1-1.564.401 2.919 2.919 0 0 1-1.166-.722l-2.45-2.113a59.392 59.392 0 0 1-1.441-1.257 199.244 199.244 0 0 1-.242 8.848c-.049.917-.126 1.905-.567 2.722a31.1 31.1 0 0 1 1.488 8.667c.074 2.783-.226 5.564-.529 8.335-.484 4.485-.97 8.971-1.458 13.457a37.838 37.838 0 0 1-.878 5.538c-.423 1.624-1.056 3.184-1.608 4.772l3.126-.034 3.98-.043h.49l6.735-.073a.041.041 0 0 0 0-.022c.52-2.942 1.922-5.792 1.644-8.771-.184-1.988-1.108-3.82-1.745-5.713-2.78-8.277 0-17.504-2.011-25.997-.463-1.948-1.161-4.059-.307-5.878l-1.276-.389c.174-.403.352-.804.529-1.223a3.136 3.136 0 0 1-.75-.505zM196.08 167.131c.012 2.067.025 4.135.039 6.202h.135l-.174-6.202zM275.37 160.096l.061 9.362.202-.119c-.09-3.081-.177-6.162-.263-9.243zM267.949 63.404l-.517.104c.288.342.61.655.961.933a5.09 5.09 0 0 1-.444-1.037zM239.245 148.78l.092 13.476a15.864 15.864 0 0 1-.205 3.257c-.184.899-.52 1.758-.713 2.654-.273 1.282-.239 2.609-.227 3.921v.789l1.736-.018c-.226-8.025-.454-16.052-.683-24.079zM293.224 102.179l.462.572-.78-3.031a1.92 1.92 0 0 0-.331-.78 3.39 3.39 0 0 0-.918-.578 2.576 2.576 0 0 1-.206-.153c.454.581.998 1.101 1.326 1.759.305.697.457 1.451.447 2.211z"/>
    <path fill="#F2F2F2" d="M251.757 55.69a8.06 8.06 0 0 1-3.199 6.337 4.723 4.723 0 0 0-.361 1.67c.025.462.144.913.352 1.325.269-.095.559-.11.836-.04.221.077.428.19.612.334l.824.575c.17-.081.356-.12.545-.114.355.04.696.16.998.352l4.249 2.273c.303.124.561.338.741.611a1.078 1.078 0 0 1-.028.918c2.881-.208 6.053.645 7.531 3.095.787 1.303.983 2.872 1.121 4.389.024.278.046.556.067.838 1.05-.86 2.305-1.44 3.542-2.007.444-.201.952-.41 1.405-.226a.942.942 0 0 1 .447.373c.198-.227.42-.432.661-.611.234-.166.51-.262.796-.279a.338.338 0 0 1 .022-.052c.357-1.03.648-2.082.869-3.15a8.067 8.067 0 0 1-1.938-3.893 15.126 15.126 0 0 1-2.492-2.545c-2.286.743-4.772 1.254-6.823.11-1.788-.997-2.756-3.113-2.756-5.16 0-.782.126-1.568.022-2.342-.104-.774-.505-1.575-1.225-1.875-.438-.18-.949-.159-1.35-.41-.517-.306-.692-.984-.784-1.587-.266-1.768-.189-3.584-.612-5.319a8.803 8.803 0 0 0-.765-1.982 7.677 7.677 0 0 1-.233 1.05c-.141.795.202 1.645-.061 2.41a1.88 1.88 0 0 1-.453.712c-.104.77.199 1.584-.055 2.319-.404 1.091-1.58 1.382-2.505 1.902z"/>
    <path fill="#3F3D56" d="M202.254 167.669v7.34H44.592v-7.34a2.141 2.141 0 0 1 2.143-2.141h153.376a2.14 2.14 0 0 1 2.143 2.141z"/>
    <path fill="#192534" d="M142.487 58.575c1.169 1.202 2.293 2.59 2.513 4.251-2.492.652-5.042-.572-7.372-1.664a93.621 93.621 0 0 0-22.654-7.3c-.612-.113-1.267-.239-1.73-.66-.872-.799-.713-2.811.098-3.64.876-.893 2.495-.765 3.674-.83a33.567 33.567 0 0 1 25.483 9.843h-.012z"/>
    <path fill="#202F42" d="M194.399 174.997h-62.621a33.686 33.686 0 0 1-1.965-5.909 88.76 88.76 0 0 1-.453-1.899 78.367 78.367 0 0 1-.368-1.673 88.428 88.428 0 0 1-.918-5.044 90.561 90.561 0 0 1-.613-4.786 99.585 99.585 0 0 1-.37-4.609v-.132c-.037-.731 0-1.529.502-2.046.441-.443 1.114-.541 1.742-.584 5.204-.355 10.262 1.529 15.454 1.251 1.408-.082 2.541-.306 3.851-.037.207.039.412.091.612.156.307.095.591.196.882.306 1.993.713 3.851 1.612 5.994 2.013 3.65.688 7.394.553 11.098.819.306.019.612.043.918.074.377.03.754.07 1.127.116 3.174.42 6.29 1.2 9.288 2.324a70.935 70.935 0 0 1 4.779 1.946c.45.201.897.403 1.344.611.796.37 1.604.762 2.394 1.187.306.162.612.327.9.501 2.379 1.38 4.528 3.093 5.78 5.417a9.432 9.432 0 0 1 .475 1.018c1.093 2.836.71 5.894.168 8.98z"/>
    <path fill="#000" d="M194.399 174.997h-62.621a33.686 33.686 0 0 1-1.965-5.909 88.76 88.76 0 0 1-.453-1.899 78.367 78.367 0 0 1-.368-1.673 88.428 88.428 0 0 1-.918-5.044 90.561 90.561 0 0 1-.613-4.786 99.585 99.585 0 0 1-.37-4.609v-.132c-.037-.731 0-1.529.502-2.046.441-.443 1.114-.541 1.742-.584 5.204-.355 10.262 1.529 15.454 1.251 1.408-.082 2.541-.306 3.851-.037.207.039.412.091.612.156.307.095.591.196.882.306 1.993.713 3.851 1.612 5.994 2.013 3.65.688 7.394.553 11.098.819.306.019.612.043.918.074.377.03.754.07 1.127.116 3.174.42 6.29 1.2 9.288 2.324a70.935 70.935 0 0 1 4.779 1.946c.45.201.897.403 1.344.611.796.37 1.604.762 2.394 1.187.306.162.612.327.9.501 2.379 1.38 4.528 3.093 5.78 5.417a9.432 9.432 0 0 1 .475 1.018c1.093 2.836.71 5.894.168 8.98z" opacity=".1"/>
    <path fill="#202F42" d="M137.246 174.997h-70.58c-1.587-1.743-2.625-4.016-2.367-6.331.092-.963.254-1.917.483-2.857.025-.101.052-.198.08-.305a7.102 7.102 0 0 1 3.135-4.282c2.78-1.783 6.123-2.481 9.184-3.637 1.644-.611 3.23-1.385 4.874-2a39.308 39.308 0 0 1 7.289-1.86c.275-.045.554-.091.83-.131.275-.04.566-.089.85-.128a161.27 161.27 0 0 1 4.608-.579c3.368-.394 6.787-.786 10.176-.486 2.708.281 5.373.879 7.941 1.78 1.935.646 3.846 1.395 5.744 2.141 2.96 1.168 5.945 2.364 8.587 4.117a20.288 20.288 0 0 1 5.244 5.055 21.774 21.774 0 0 1 1.932 3.206 22.233 22.233 0 0 1 1.99 6.297z"/>
    <path fill="#FBBEBE" d="M117.12 51.694c-1.157 2.535-3.12 4.832-5.749 5.765-1.399.495-2.909.584-4.335.99-1.427.407-2.866 1.248-3.368 2.64a6.174 6.174 0 0 0-.263 1.88c-.218 5.98-.395 12.195 1.996 17.682 2.066 4.734 5.853 8.475 9.594 12.04 4.378 4.172 9.013 8.402 14.772 10.268 3.367 1.086 7.332 1.205 10.118-.957 1.144-.89 1.996-2.092 2.831-3.28 1.837-2.614 3.705-5.266 4.862-8.257 2.372-6.117 1.573-12.93.738-19.43a1.581 1.581 0 0 0-.411-1.043c-.324-.272-.799-.236-1.224-.211-2.979.177-6.23-1.349-7.228-4.156-.429-1.224-.416-2.533-.395-3.817l.116-7.408c0-.798.022-1.624-.278-2.367-.524-1.29-1.837-2.046-3.095-2.67a76.845 76.845 0 0 0-12.638-4.973c-1.904-.56-3.352-1.493-4.2.55-.897 2.126-.857 4.591-1.843 6.754z"/>
    <path fill="#000" d="M117.12 51.694c-1.157 2.535-3.12 4.832-5.749 5.765-1.399.495-2.909.584-4.335.99-1.427.407-2.866 1.248-3.368 2.64a6.174 6.174 0 0 0-.263 1.88c-.218 5.98-.395 12.195 1.996 17.682 2.066 4.734 5.853 8.475 9.594 12.04 4.378 4.172 9.013 8.402 14.772 10.268 3.367 1.086 7.332 1.205 10.118-.957 1.144-.89 1.996-2.092 2.831-3.28 1.837-2.614 3.705-5.266 4.862-8.257 2.372-6.117 1.573-12.93.738-19.43a1.581 1.581 0 0 0-.411-1.043c-.324-.272-.799-.236-1.224-.211-2.979.177-6.23-1.349-7.228-4.156-.429-1.224-.416-2.533-.395-3.817l.116-7.408c0-.798.022-1.624-.278-2.367-.524-1.29-1.837-2.046-3.095-2.67a76.845 76.845 0 0 0-12.638-4.973c-1.904-.56-3.352-1.493-4.2.55-.897 2.126-.857 4.591-1.843 6.754z" opacity=".1"/>
    <path fill="#FBBEBE" d="M137.2 57.71c12.511 0 22.654-10.133 22.654-22.633S149.711 12.445 137.2 12.445c-12.512 0-22.655 10.133-22.655 22.632 0 12.5 10.143 22.632 22.655 22.632z"/>
    <path fill="#0068A7" d="M139.352 70.56l-2.532 6.28c-.572 1.419-1.154 2.853-2.036 4.104-2.434 3.447-7.228 5.025-11.226 3.698-3.775-1.245-7.124-4.774-11.021-3.927-2.02.44-3.631 2.061-4.531 3.92-.9 1.86-1.188 3.952-1.38 6.01a76.23 76.23 0 0 0 2.678 28.309c.276.948.613 1.942 1.344 2.597.894.783 2.177.899 3.368.966 5.51.329 11.031.522 16.562.582 3.398.039 6.812.027 10.167-.499 3.355-.526 6.567-1.529 9.876-2.19 3.095-.612 6.264-.896 9.288-1.786.493-.144 1.014-.327 1.317-.737.234-.391.341-.845.306-1.3 0-1.762-.548-3.474-1.142-5.132-1.531-4.23-3.319-8.392-4.17-12.805-1.172-6.072-.483-12.326-.612-18.51-.043-2.214-.196-4.465-.958-6.548-.763-2.083-2.204-3.998-4.234-4.894-3.499-1.556-9.389-2.254-11.064 1.863z"/>
    <path fill="#192534" d="M127.71 100.274c-1.617-1.37-1.531-3.814-1.724-5.925-.352-3.957-2.076-7.646-3.772-11.242l-5.066-10.754c-2.119-4.483-4.286-9.588-2.538-14.234.584-1.566 1.586-2.96 2.1-4.55.514-1.591.41-3.579-.894-4.628-1.659-1.334-4.112-.425-5.988.587a91.697 91.697 0 0 0-9.959 6.255c-.863.611-1.77 1.336-2.051 2.364-.174.639-.083 1.34-.328 1.957-.477 1.224-1.965 1.59-3.236 1.878a39.53 39.53 0 0 0-14.503 6.642 39.49 39.49 0 0 0-10.692 11.83 21.915 21.915 0 0 0-2.143 4.781c-.612 2.141-.771 4.365-.918 6.576-.392 5.688-.77 11.374-1.133 17.057-.162 2.517-.321 5.095.367 7.52.444 1.56 1.225 3.019 1.556 4.609.67 3.307-.744 6.683-2.51 9.558-1.767 2.875-3.94 5.572-5.049 8.744a20.523 20.523 0 0 0-.992 6.245 35.82 35.82 0 0 0 5.7 20.217c3.763.553 6.58-3.184 10.036-4.772 5.066-2.321 11.465-.461 16.225-3.33 1.164-.701 2.17-1.655 3.401-2.233 1.118-.523 2.358-.709 3.58-.887 4.512-.651 9.082-1.254 13.616-.764 6.429.694 13.075 3.547 19.122 1.244 1.491-.569 2.856-1.428 4.353-1.982 5.511-2.039 11.633.398 17.502-.052-.918-.048-1.329-1.088-1.5-2.003a137.554 137.554 0 0 1-1.022-6.117c-.261-1.777-.484-3.602-.077-5.349.373-1.621 1.267-3.058 2.017-4.545 2.367-4.679 3.368-9.927 5.398-14.766.964-2.306 2.143-4.508 3.288-6.728a138.674 138.674 0 0 0 10.736-28.615c-2.673-4.792-5.094-9.787-7.767-14.576-.774-1.389-1.57-2.802-2.755-3.875-1.696-1.554-3.995-2.23-6.209-2.857-1.901-.541-3.829-1.086-5.816-1.089-1.987-.003-7.577-2.076-8.918-.63-1.384 1.493 1.73 6.313 1.659 8.344-.07 2.03.153 4.086-.183 6.092-.49 2.927-2.143 5.536-2.894 8.405a41.391 41.391 0 0 0-.682 4.11 46.619 46.619 0 0 1-2.416 9.044 6.123 6.123 0 0 1-.884 1.719c-1.452 1.774-3.784 1.101-6.037.725z"/>
    <path fill="#FBBEBE" d="M172.687 132.5c.582.71 1.378 1.196 2.097 1.762 2.832 2.217 4.498 5.591 6.999 8.175 1.261 1.306 2.728 2.398 4.071 3.618 3.126 2.844 5.548 6.359 7.942 9.839.612.887 1.224 1.795 1.53 2.826.536 1.759.101 3.719-.875 5.279-.977 1.56-2.449 2.752-4.038 3.688-.83.492-1.694.921-2.587 1.285-1.837.746-3.588-1.276-2.553-2.964a35.477 35.477 0 0 0 1.8-3.272 4.666 4.666 0 0 0 .582-2.025c-.025-1.248-1.011-2.306-2.143-2.829-1.133-.523-2.41-.612-3.65-.765a40.792 40.792 0 0 1-19.36-7.695c-3.214-2.385-6.312-5.881-5.801-9.848.379-2.96 2.725-5.315 5.299-6.832a19.691 19.691 0 0 1 6.784-2.447c.674-.11 2.364-.572 2.967-.107.535.398.434 1.7.936 2.312z"/>
    <path fill="#000" d="M172.687 132.5c.582.71 1.378 1.196 2.097 1.762 2.832 2.217 4.498 5.591 6.999 8.175 1.261 1.306 2.728 2.398 4.071 3.618 3.126 2.844 5.548 6.359 7.942 9.839.612.887 1.224 1.795 1.53 2.826.536 1.759.101 3.719-.875 5.279-.977 1.56-2.449 2.752-4.038 3.688-.83.492-1.694.921-2.587 1.285-1.837.746-3.588-1.276-2.553-2.964a35.477 35.477 0 0 0 1.8-3.272 4.666 4.666 0 0 0 .582-2.025c-.025-1.248-1.011-2.306-2.143-2.829-1.133-.523-2.41-.612-3.65-.765a40.792 40.792 0 0 1-19.36-7.695c-3.214-2.385-6.312-5.881-5.801-9.848.379-2.96 2.725-5.315 5.299-6.832a19.691 19.691 0 0 1 6.784-2.447c.674-.11 2.364-.572 2.967-.107.535.398.434 1.7.936 2.312z" opacity=".1"/>
    <path fill="#441900" d="M147.165 22.29c-3.062 3.132-7.978 3.263-12.362 3.187l.144-1.716-6.166 2.208a16.56 16.56 0 0 0 4.047-4.325c-.799-.7-2.051-.678-3-.195-.949.483-1.647 1.336-2.244 2.217a20.203 20.203 0 0 0-2.241 17.987c-1.225.679-2.786.48-3.962-.26-1.175-.74-1.996-1.945-2.553-3.218-.364-.832-.744-1.816-1.613-2.076-.729-.217-1.531.226-1.935.871a3.719 3.719 0 0 0-.419 2.202c.113 1.78 1.414 3.469 1.674 5.23.26 1.762 2.893 3.132 1.531 4.282-.392.333-4.412 1.242-4.92 1.162-.689-.107-1.145-.77-1.432-1.404-1.372-3.01-.879-6.526-1.69-9.731-.652-2.579-2.122-4.867-3.57-7.1a10.44 10.44 0 0 0-1.368-1.807c-.481-.47-1.075-.877-1.308-1.507-.232-.63.196-1.53.861-1.429a27.86 27.86 0 0 0-3.451-2.835 172.314 172.314 0 0 0 3.558-4.658c.398-.538.811-1.223.52-1.835a1.905 1.905 0 0 0-.695-.673l-3.165-2.14c-.071-1.453 2.89-.918 3.346-2.291.08-.365.053-.746-.08-1.095l-1.077-3.927 4.093 1.853c.496.226 1.025.456 1.567.376 1.081-.156 1.601-1.434 1.656-2.526.056-1.092-.119-2.266.423-3.217a59.404 59.404 0 0 1 5.556.04 3.642 3.642 0 0 0-.688-2.625L129.88.557c2.336-.129 4.736-.248 6.955.486.754.25 1.513.612 2.303.523.789-.089 1.585-.817 1.359-1.575a24.836 24.836 0 0 1 5.569 4.282c.443.528.98.97 1.582 1.306.613.287 1.451.275 1.917-.233.373-.407.56-1.116 1.111-1.14.343 0 .612.268.83.54.782 1 1.419 2.105 1.892 3.282a12.053 12.053 0 0 0 2.862-.752c-.955.804-.98 2.303-.524 3.465.457 1.162 1.283 2.141 1.837 3.254a13.243 13.243 0 0 1 1.099 3.771c.279 1.634.282 3.692-1.169 4.493-1.261.698-2.826-.046-3.98-.917-3.178-2.38-3.784-1.682-6.358.948z"/>
    <path fill="#464A5F" d="M163.173 166.788l21.212-1.911a3.31 3.31 0 0 0 3.006-3.466l-.015-.305a3.305 3.305 0 0 0-2.351-2.992l-3.429-1.027a3.335 3.335 0 0 0-.952-.141h-7.779a3.457 3.457 0 0 0-.634.061c-1.644.321-9.208 1.808-9.49 2.08-.15.153-1.05.826-1.919 1.468a3.299 3.299 0 0 0-1.253 3.413l.065.282a3.307 3.307 0 0 0 3.539 2.538z"/>
    <path fill="#0068A7" d="M152.813 160.164l8.572-2.447 15.919-2.141s10.103-2.753 11.021 5.811l-.857 1.45s.857-5.426-9.551-3.897c0 0-18.715-.627-17.928 6.729 0-.006-6.564-1.224-7.176-5.505zM164.446 154.967c1.184 0 2.143-.137 2.143-.306 0-.168-.959-.305-2.143-.305-1.183 0-2.143.137-2.143.305 0 .169.96.306 2.143.306z"/>
    <path fill="#0068A7" d="M183.58 154.814h-1.531v2.753h1.531zM165.212 154.814h-1.531v2.753h1.531z"/>
    <path fill="#0068A7" d="M184.789 155.064c.151-.394-.75-1.106-2.013-1.589-1.263-.484-2.41-.556-2.561-.162-.151.395.75 1.106 2.013 1.59 1.264.483 2.41.555 2.561.161z"/>
    <path fill="#FBBEBE" d="M95.88 159.714c.655.682 1.323 1.376 2.164 1.804a8.58 8.58 0 0 0 2.627.695 764.593 764.593 0 0 1 27.724 4.789c2.593.502 5.204 1.022 7.654 2.028 1.249.517 2.449 1.159 3.673 1.7 7.041 3.086 15.001 2.888 22.682 2.631 1.503-.049 3.062-.11 4.418-.737 1.013-.462 1.941-1.34 2.032-2.447.16-1.924-2.029-3.059-3.777-3.887-4.173-1.967-7.81-5.166-10.008-9.222-.392-.715-.71-1.679-.159-2.284.413-.453 1.114-.456 1.73-.431 2.571.1 5.143.073 7.714-.08 1.332-.083 3.095-.713 2.884-2.025-.092-.562-.557-.981-.998-1.348-2.317-1.946-4.947-3.949-7.975-3.891-1.589.031-3.104.636-4.592 1.147-8.015 2.716-16.645 2.866-25.103 2.811-2.07 0-4.155-.04-6.181-.462a32.296 32.296 0 0 1-4.877-1.569c-5.131-1.954-10.283-3.921-15.035-6.664-1.889-1.089-3.995-2.349-6.101-1.789a6.344 6.344 0 0 0-2.51 1.529c-2.508 2.263-4.623 5.034-3.91 8.508.726 3.652 3.432 6.594 5.924 9.194z"/>
    <path fill="#192534" d="M94.515 100.65c.79 2.553 1.252 5.257 2.611 7.56 1.442 2.447 3.842 4.343 4.675 7.056.588 1.921.306 3.976.306 5.991 0 2.285.432 4.64 1.696 6.542.637.961 1.466 1.774 2.192 2.67 3.217 3.976 4.209 9.286 4.61 14.375-3.061-1.731-6.643-3.517-9.958-2.328-1.341.484-2.474 1.413-3.527 2.377a45.219 45.219 0 0 0-5.581 6.117c-.876 1.153-1.736 2.563-1.356 3.957-1.813-2.63-3.65-5.279-5.058-8.172-.998-2.067-1.772-4.251-2.97-6.215-1.505-2.468-3.627-4.495-5.412-6.771-4.01-5.114-6.26-11.445-7.353-17.834-1.093-6.389-1.14-12.934-1.105-19.43 0-2.14.046-4.367.949-6.315.535-1.16 1.353-2.163 2.164-3.15 1.029-1.258 2.088-2.54 3.487-3.365 4.451-2.618 9.227 1.722 12.203 4.692a29.877 29.877 0 0 1 7.427 12.243zM171.252 85.97c.412.375.745.83.979 1.336.233.612.172 1.284.123 1.936-.29 3.879-.015 7.78.817 11.579.499 2.297 1.13 4.955-.337 6.793a5.636 5.636 0 0 0-.612.78c-.679 1.272.576 2.657 1.531 3.749 2.902 3.365 3.367 8.628 1.117 12.466-.425.731-.946 1.423-1.184 2.23a7.01 7.01 0 0 0-.19 2.031l.012 5.117c-3.218-.432-6.815-.768-9.402 1.192-2.182 1.652-3.046 4.527-4.898 6.527-1.797 1.927-4.592 3.169-5.293 5.707l.037-10.573a24.397 24.397 0 0 0-.227-4.202c-.367-2.187-1.319-4.233-1.877-6.38-.728-2.808-.774-5.741-.817-8.643-.07-4.793-.138-9.637.857-14.326.407-1.908.986-3.777 1.433-5.676.811-3.426 1.225-6.992 2.648-10.21 1.424-3.217 4.219-6.135 7.727-6.48 3.695-.37 5.263 2.652 7.556 5.046z"/>
    <path fill="#FBBEBE" d="M184.956 154.585c1.025-.591.965-2.612-.134-4.513-1.099-1.902-2.821-2.964-3.846-2.373-1.025.591-.965 2.612.134 4.514 1.099 1.901 2.821 2.964 3.846 2.372z"/>
    <path fill="#000" d="M184.956 154.585c1.025-.591.965-2.612-.134-4.513-1.099-1.902-2.821-2.964-3.846-2.373-1.025.591-.965 2.612.134 4.514 1.099 1.901 2.821 2.964 3.846 2.372z" opacity=".1"/>
  </g>
</svg>
