<svg xmlns="http://www.w3.org/2000/svg" viewBox="0 0 280 175">
  <g fill="none" fill-rule="nonzero">
    <path fill="#0068A7" d="M277.578 120.549c-2.803 6.724-8.667 12.797-14.962 18.549-5.533 5.057-11.452 9.944-17.756 14.66a239.322 239.322 0 0 1-5.325 3.879l-1.252.881a169.2 169.2 0 0 1-3.389 2.33l-.138.093a232.028 232.028 0 0 1-3.371 2.246c-3.708 2.431-7.628 4.844-11.961 6.842a57.7 57.7 0 0 1-4.577 1.888c-.853.309-1.724.599-2.614.869a49.063 49.063 0 0 1-5.302 1.298c-1.6.3-3.219.518-4.855.668-5.997.548-12.191.147-18.197-.79a111.487 111.487 0 0 1-8.817-1.76c-.352-.084-.701-.17-1.053-.246-9.737-2.43-18.879-5.73-28.685-8.049a140.181 140.181 0 0 0-10.335-2.038 164.23 164.23 0 0 0-5.167-.736 151.296 151.296 0 0 0-12.353-1.017c-5.59-.245-11.363-.14-16.683.835-.709.129-1.409.275-2.1.437-.875.205-1.735.438-2.578.7a45.91 45.91 0 0 0-6.617 2.717c-.42.206-.837.415-1.252.626-1.305.663-2.592 1.34-3.898 1.998a49.245 49.245 0 0 1-7.318 3.098 38.96 38.96 0 0 1-4.203 1.071c-3.758.751-7.756 1.048-11.772 1.067-1.937 0-3.876-.041-5.793-.142h-.059a87.53 87.53 0 0 1-1.968-.123 116.24 116.24 0 0 1-8.913-.947c-10.067-1.473-19.614-4.257-27.294-8.504C6.59 157.185-.034 148.591.96 140.004c.713-6.186 5.145-11.931 9.35-17.555 7.823-10.472 15.151-21.182 19.007-32.472 3.127-9.164 4.06-18.853 11.258-27.09 2.305-2.636 5.253-5.041 8.686-7.15a55.527 55.527 0 0 1 8.041-4.056 69.628 69.628 0 0 1 9.693-3.154 77.31 77.31 0 0 1 8.691-1.63 77.676 77.676 0 0 1 4.818-.474c1.247-.086 2.5-.141 3.758-.164h.194c.77-.015 1.54-.015 2.308 0 5.61.087 11.205.61 16.733 1.569 3.46.576 6.89 1.283 10.249 2.061a244.194 244.194 0 0 1 7.754 1.928c14.006 3.743 26.329 8.913 39.824 13.155.069.022.135.044.204.061 2.77.85 5.582 1.555 8.426 2.111 2.089.418 4.225.779 6.397 1.095 3.327.491 6.726.88 10.148 1.213l.756.074c5.022.49 10.089.856 15.01 1.284 1.747.152 3.48.309 5.187.49a230.6 230.6 0 0 1 3.219.344c.763.089 1.528.177 2.293.27.766.094 1.575.192 2.363.292.511.064 1.021.13 1.533.202 3.1.41 6.193.869 9.252 1.394 1.86.32 3.711.663 5.539 1.033 1.324.269 2.636.552 3.937.85.965.218 1.921.447 2.869.687 7.705 1.932 14.915 4.466 21.128 7.885 16.135 8.86 23.354 23.434 17.993 36.292zM61.269 22.192a5.316 5.316 0 0 0 5.322-5.31 5.316 5.316 0 0 0-5.322-5.31 5.316 5.316 0 0 0-5.322 5.31 5.316 5.316 0 0 0 5.322 5.31zM170.059 10.62a5.316 5.316 0 0 0 5.323-5.31A5.316 5.316 0 0 0 170.059 0a5.316 5.316 0 0 0-5.322 5.31 5.316 5.316 0 0 0 5.322 5.31zM234.567 22.51a5.316 5.316 0 0 0 5.322-5.309 5.316 5.316 0 0 0-5.322-5.31 5.316 5.316 0 0 0-5.323 5.31 5.316 5.316 0 0 0 5.323 5.31zM8.92 38.627c4.927 0 8.92-3.984 8.92-8.899 0-4.915-3.993-8.899-8.92-8.899-4.926 0-8.92 3.984-8.92 8.899 0 4.915 3.994 8.899 8.92 8.899zM17.471 82.568c4.927 0 8.92-3.984 8.92-8.898 0-4.915-3.993-8.9-8.92-8.9-4.926 0-8.92 3.985-8.92 8.9 0 4.914 3.994 8.898 8.92 8.898zM256.878 66.393c4.927 0 8.92-3.984 8.92-8.898 0-4.915-3.993-8.9-8.92-8.9-4.926 0-8.92 3.985-8.92 8.9 0 4.914 3.994 8.898 8.92 8.898z" opacity=".1"/>
    <path fill="#BE6F72" d="M87.195 58.756a9.55 9.55 0 0 1-.13 2.234c-.492 2.28-2.574 3.847-4.59 5.035-2.015 1.188-4.23 2.313-5.428 4.318-1.444 2.423-.984 5.68.711 7.944 1.696 2.263 4.383 3.611 7.149 4.173 5.044 1.039 10.568-.42 14.35-3.905 3.783-3.486 5.68-8.934 4.752-13.993-2.052.287-3.88-1.52-4.545-3.478-.664-1.96-.526-4.083-.785-6.138a2.104 2.104 0 0 0-.305-.981c-.288-.398-.797-.56-1.272-.69-2.372-.65-6.364-2.075-8.822-1.53-2.214.506-1.122 5.156-1.085 7.011z"/>
    <path fill="#000" d="M87.195 58.756a9.55 9.55 0 0 1-.13 2.234c-.492 2.28-2.574 3.847-4.59 5.035-2.015 1.188-4.23 2.313-5.428 4.318-1.444 2.423-.984 5.68.711 7.944 1.696 2.263 4.383 3.611 7.149 4.173 5.044 1.039 10.568-.42 14.35-3.905 3.783-3.486 5.68-8.934 4.752-13.993-2.052.287-3.88-1.52-4.545-3.478-.664-1.96-.526-4.083-.785-6.138a2.104 2.104 0 0 0-.305-.981c-.288-.398-.797-.56-1.272-.69-2.372-.65-6.364-2.075-8.822-1.53-2.214.506-1.122 5.156-1.085 7.011z" opacity=".1"/>
    <path fill="#BE6F72" d="M84.328 167.434a49.245 49.245 0 0 1-7.318 3.098 38.96 38.96 0 0 1-4.203 1.071c-.1-1.888.003-3.781.308-5.647.192-1.072.475-2.135.549-3.223a8.44 8.44 0 0 0-.972-4.527c2.74-.373 5.344-.982 8.098-.802l.175.012c.327.008.651.069.96.179.423.205.783.52 1.04.913.142.193.272.394.391.602.778 1.34 1.073 2.887 1.135 4.48a29.711 29.711 0 0 1-.163 3.844zM98.677 161.39c-.876.205-1.736.438-2.58.7a45.917 45.917 0 0 0-6.616 2.718 9.73 9.73 0 0 1-.202-2.033 11.402 11.402 0 0 1 8.699-1.785c.2.024.39.101.551.221a.746.746 0 0 1 .148.179z"/>
    <path fill="#3F3D56" d="M102.907 148.998c-.168 1.606-.414 3.216-.984 4.726-.618 1.62-1.622 3.191-1.494 4.922.056.751.312 1.566.349 2.31a42.73 42.73 0 0 0-2.099.437c-.876.204-1.735.438-2.579.699a46.03 46.03 0 0 0-6.616 2.718c-.421.206-.837.415-1.253.626a9.163 9.163 0 0 1-.514-.081c-1.23-.223-2.525-.773-3.221-1.755a2.808 2.808 0 0 1-.372-.737c-.4-1.195.017-2.685-.817-3.633l-.04.035-.029.019a8.228 8.228 0 0 1-1.496 1.075 10.046 10.046 0 0 1-8.12.781 8.926 8.926 0 0 1-1.523-.682c-1.127-.641-2.215-1.719-2.126-3.005.049-.717.46-1.404.35-2.114-.082-.508-.417-.93-.668-1.379-1.646-2.946.318-6.734-.716-9.935a6.325 6.325 0 0 0-.079-.226c-.076-.209-.162-.41-.246-.611-.211-.469-.448-.931-.635-1.412a8.174 8.174 0 0 1-.369-1.244 15.55 15.55 0 0 1-.246-3.737c0-3.296.59-6.672 1.432-9.848.15-.565.318-1.363.54-2.232.215-.916.507-1.812.87-2.68.493-1.13 1.162-2.031 2.077-2.244 1.378-.322 3.485.358 4.882.525l5.525.658 11.046 1.318c1.907.229 3.91.491 5.482 1.562a6.046 6.046 0 0 1 1.413 1.347c.113.145.221.297.324.452.359.547.664 1.128.911 1.733 1.371 3.285 1.403 6.95 1.412 10.507 0 3.712.013 7.421-.371 11.105z"/>
    <path fill="#000" d="M81.73 160.374c-.332-1.276-1.034-3.125-1.137-3.628a45.957 45.957 0 0 1-.753-5.111c-.273-3.059-.765-7.365.317-10.274 1.017.54 1.91 2.07 2.38 3.113 1.703 3.783-.214 8.428 1.385 12.255.12.229.194.479.22.736a1.783 1.783 0 0 1-.34.904l-.54.893-1.532 1.112z" opacity=".1"/>
    <path fill="#BE6F72" d="M117.169 43.588c1.811-2.946 4.291-5.843 4.136-9.287-.056-1.227-.46-2.428-.767-3.63a23.1 23.1 0 0 1-.17-10.627 12.053 12.053 0 0 1 8.701 1.944c.805.555 1.567 1.245 1.922 2.155.327.84.273 1.775.214 2.674-.136 2.064-.32 4.266-1.595 5.891-.396.508-.883.938-1.269 1.451-.564.736-.894 1.635-1.216 2.511l-4.183 11.354c-2.112 5.722-4.4 11.707-9.051 15.667-.113.095-3.445-4.625-3.72-5.1-1.115-1.94-.628-2.76.721-4.386 2.66-3.213 4.104-7.09 6.277-10.617z"/>
    <path fill="#FBBEBE" d="M69.23 140.36a18.828 18.828 0 0 1-.215 2.531c-.044.309-.096.616-.157.923-.84 4.369-2.928 8.525-4.39 12.782-1.927 5.619-2.773 10.495-3.445 16.074-1.937 0-3.876-.041-5.793-.142h-.059a87.53 87.53 0 0 1-1.968-.123c.593-5.204-.492-10.664.568-15.873.428-2.096 1.16-4.131 1.6-6.218.136-.614.238-1.235.307-1.861.062-.594.094-1.21.362-1.745.025-.052.053-.102.084-.15.235-.37.528-.701.866-.982a21.628 21.628 0 0 1 10.596-5.039c.558-.076 1.102-.14 1.644-.177z"/>
    <path fill="#000" d="M69.23 140.36a18.828 18.828 0 0 1-.215 2.531c-.044.309-.096.616-.157.923-.84 4.369-2.928 8.525-4.39 12.782-1.927 5.619-2.773 10.495-3.445 16.074-1.937 0-3.876-.041-5.793-.142h-.059a87.53 87.53 0 0 1-1.968-.123c.593-5.204-.492-10.664.568-15.873.428-2.096 1.16-4.131 1.6-6.218.136-.614.238-1.235.307-1.861.062-.594.094-1.21.362-1.745.025-.052.053-.102.084-.15.235-.37.528-.701.866-.982a21.628 21.628 0 0 1 10.596-5.039c.558-.076 1.102-.14 1.644-.177z" opacity=".1"/>
    <path fill="#FBBEBE" d="M56.754 151.547a38.369 38.369 0 0 1-.337 4.077c-.657 5.526-.78 11.292-1.23 16.901a87.514 87.514 0 0 1-1.97-.122 116.235 116.235 0 0 1-8.912-.948c.226-1.263.454-2.527.684-3.79.28-1.549.561-3.113.48-4.684-.076-1.485-.475-2.931-.792-4.387-.677-3.117-1.056-6.48-2.17-9.421a12.268 12.268 0 0 0-2.722-4.419c4.611-1.807 9.043-1.91 13.996-1.718.352-.02.701.066 1.004.245.235.203.41.466.505.761a19.003 19.003 0 0 1 1.385 5.602c.06.632.085 1.267.079 1.903z"/>
    <path fill="#BE6F72" d="M93.898 57.49c5.3 0 9.597-4.287 9.597-9.574 0-5.288-4.297-9.574-9.597-9.574s-9.597 4.286-9.597 9.574c0 5.287 4.297 9.574 9.597 9.574z"/>
    <path fill="#E3E8F4" d="M95.894 70.292c1.23-2.094 2.308-4.709 4.675-5.29 1.336-.332 2.727.12 4.028.564.377.09.72.287.985.57.192.304.295.656.297 1.016a66.387 66.387 0 0 1-.042 13.01c-.312 3.062-.839 6.108-.932 9.184-.131 4.264.573 8.528.342 12.787-.175 3.228-.883 6.4-1.587 9.554l-2.953 13.207a2.247 2.247 0 0 1-.475 1.117 2.21 2.21 0 0 1-.871.491 32.484 32.484 0 0 1-26.239-2.049c-1.065-.585-2.128-1.26-2.822-2.256-.984-1.414-1.075-3.285-.755-4.979.32-1.694 1.01-3.292 1.476-4.954.719-2.577.888-5.268 1.05-7.939.217-3.515.434-7.052.057-10.555-.258-2.413-.797-4.79-1.203-7.183a79.038 79.038 0 0 1-1.038-10.907c-.062-2.182.039-4.605 1.552-6.179.739-.766 1.723-1.227 2.724-1.6 1.68-.619 3.559-.982 5.256-.418 1.698.565 3.066 2.342 2.665 4.083-.184.807-.708 1.514-.836 2.334-.17 1.085.406 2.178 1.23 2.912 4.434 3.996 11.204-2.73 13.416-6.52z"/>
    <path fill="#3F3D56" d="M96.246 60.51a7.274 7.274 0 0 1 4.205-.246c.888.21 1.848.584 2.667.189.298-.143.544-.376.844-.509.812-.355 1.866.081 2.584-.436.453-.327.6-.921.753-1.461a13.095 13.095 0 0 1 4.338-6.56c-.258 1.883-.445 4.026.802 5.465.569.653 1.366 1.063 2.173 1.382 1.159.46 2.431.764 3.654.513 1.223-.25 2.368-1.173 2.562-2.403-.042 1.848-1.806 3.14-2.301 4.924-.187.668-.17 1.377-.3 2.06-.332 1.743-1.58 3.142-2.67 4.546a32.306 32.306 0 0 0-6.447 15.52 7.462 7.462 0 0 1-.418 1.964 12.31 12.31 0 0 1-.817 1.404c-1.804 3.039-1.248 6.873-.635 10.344.957 5.438 1.912 10.765 3.462 16.065.266.906.566 1.851 1.243 2.511-.214 2.143-2.382 3.12-4.331 4.046a21.24 21.24 0 0 0-5.266 3.557c-.561.515-1.115 1.095-1.319 1.829-.192.689-.054 1.448-.3 2.118-.246.67-1.23 1.151-1.663.587-.542-2.02.383-4.134.342-6.226-.03-1.411-.493-2.783-.559-4.195-.064-1.598.408-3.167.91-4.684 1.398-4.225 3.086-8.41 3.571-12.831.485-4.421-.421-9.25-3.566-12.404-3.733-3.761-5.804-8.86-9.805-12.314-.635-.547-1.354-1.227-1.248-2.057.073-.365.234-.707.47-.997 1.373-1.934 3.199-3.513 4.675-5.364 1.477-1.85 2.658-3.981 2.39-6.338zM83.108 64.469c-.246.245-.416.584-.701.795a2.316 2.316 0 0 1-1.105.341c-1.448.22-2.909.35-4.373.39-1.23 0-2.507-.107-3.69.229-1.652.466-2.971 1.767-3.798 3.265-.827 1.497-1.218 3.191-1.535 4.878a65.076 65.076 0 0 0-1.12 11.265 29.658 29.658 0 0 0 5.377-5.568c1.18-1.598 2.251-3.365 3.937-4.433.775-.491 1.646-.815 2.426-1.294 1.627-.999 2.754-2.614 3.836-4.173.798-1.156 3.103-3.415 3.285-4.8.155-1.322-1.678-1.968-2.539-.895zM91.681 41.361c.304.183.595.385.871.607 1.67 1.163 3.908.947 5.928.682.62-.078 1.257-.167 1.789-.49.854-.526 1.255-1.606 1.171-2.605-.084-1-.588-1.92-1.203-2.7a9.733 9.733 0 0 0-6.73-3.663 4.341 4.341 0 0 0-2.016.213c-.794.327-1.392 1-2.126 1.449-2.162 1.325-5.494.736-6.89 2.852-1.02 1.561-.292 3.682-.775 5.477-.359 1.34-1.395 2.56-1.196 3.928.111.736.574 1.38.943 2.037a8.987 8.987 0 0 1 1.13 4.966c.947.668 2.268-.37 2.532-1.495.263-1.124-.04-2.322.184-3.456.396-1.991 2.158-3.452 2.953-5.278.57-1.308 1.5-3.518 3.435-2.524z"/>
    <path fill="#FBBEBE" d="M68.413 63.153c-.074.447-.121.94.127 1.318.493.737 1.62.472 2.505.582 1.381.17 2.4 1.473 2.668 2.843.268 1.37-.052 2.764-.401 4.11a94.831 94.831 0 0 1-2.825 9.016c-2.938-.346-6.031-1.473-7.591-3.975-1.418-2.275-1.273-5.174-2.173-7.698-.633-1.777-1.767-3.324-2.889-4.84 1.804.225 3.093-1.832 3.199-3.644.106-1.812-.465-3.65-.076-5.42.09-.42 7.2.903 7.891 1.382 1.998 1.382-.12 4.406-.435 6.326z"/>
    <path fill="#000" d="M68.413 63.153c-.074.447-.121.94.127 1.318.493.737 1.62.472 2.505.582 1.381.17 2.4 1.473 2.668 2.843.268 1.37-.052 2.764-.401 4.11a94.831 94.831 0 0 1-2.825 9.016c-2.938-.346-6.031-1.473-7.591-3.975-1.418-2.275-1.273-5.174-2.173-7.698-.633-1.777-1.767-3.324-2.889-4.84 1.804.225 3.093-1.832 3.199-3.644.106-1.812-.465-3.65-.076-5.42.09-.42 7.2.903 7.891 1.382 1.998 1.382-.12 4.406-.435 6.326z" opacity=".1"/>
    <path fill="#FBBEBE" d="M66.83 60.19c5.3 0 9.597-4.286 9.597-9.574 0-5.287-4.297-9.574-9.597-9.574s-9.596 4.287-9.596 9.574c0 5.288 4.296 9.574 9.596 9.574z"/>
    <path fill="#3F3D56" d="M63.875 61.778c.35-.545-.246-1.306.027-1.892.162-.354.573-.506.89-.737.399-.323.716-.734.929-1.2A13.923 13.923 0 0 0 67 48.633c-.227-1.06-.429-2.47.543-2.946.27-.12.565-.17.859-.147 1.752.056 3.445 1.227 5.145.812a2.953 2.953 0 0 0 2.165-2.57c.111-1.586-1.08-2.946-2.251-4.014-2.109-1.934-5.323-2.364-8.187-2.41l-5.327-.089c-1.706-.03-3.617.025-4.804 1.245-1.707 1.755-.849 4.627-1.095 7.06a7.36 7.36 0 0 1-2.706 4.946c-1.105.88-2.626 1.719-2.606 3.123 0 .49.211.938.347 1.402.543 1.836.024 3.866-1.019 5.474s-2.569 2.845-4.151 3.928c-.847.577-1.723 1.131-2.392 1.915a5.639 5.639 0 0 0-1.248 3.174 4.164 4.164 0 0 0 .522 2.56c1.04 1.66 3.539 1.902 5.249.94 1.71-.962 2.753-2.784 3.445-4.615.413-1.087.834-2.332 1.892-2.82 1.339-.622 2.904.36 3.775 1.55.87 1.192 1.407 2.645 2.522 3.612 1.747 1.517 4.72 1.272 6.196-.51 1.056-1.28 1.29-3.05 1.23-4.707a6.845 6.845 0 0 0-1.23-3.768z"/>
    <path fill="#F86D70" d="M67.32 74.256c-1.095.233-2.24-.282-3.054-1.053-.814-.77-1.363-1.765-1.934-2.727a48.017 48.017 0 0 0-4.958-6.86c-1.614-1.857-3.861-3.745-6.258-3.17a5.942 5.942 0 0 0-2.185 1.165 15.897 15.897 0 0 0-4.807 6.327 15.858 15.858 0 0 0-1.14 7.857c.186 1.564.612 3.093.79 4.665.119 1.294.153 2.596.103 3.895-.067 3.957-.202 8.143-2.34 11.477-3.315 5.155-5.09 11.312-7.523 16.938-1.314 3.042-2.101 6.279-2.874 9.5l-1.37 5.732-2.978 12.495c-.308 1.289-.615 2.639-.29 3.928.492 1.925 2.305 3.27 4.217 3.817 1.912.548 3.938.454 5.923.472 3.8.036 7.628.508 11.194 1.824 1.019.375 2.035.824 3.12.913 1.085.088 2.166-.194 3.182-.587 2.773-1.07 5.15-2.946 7.704-4.46a30.508 30.508 0 0 1 5.02-2.423c.876-.327 1.816-.636 2.42-1.35.454-.538.659-1.24.809-1.927.831-3.869.273-7.878 0-11.825-.273-3.948-2.638-8.119-.682-11.56.394-.695.864-1.363 1.066-2.133.265-1.007.041-2.089.265-3.106.165-.751.561-1.426.832-2.145.472-1.267.536-2.647.531-3.999a43.775 43.775 0 0 0-.935-8.838c-.775-3.682 1.79-7.322 3.258-10.8.527-1.246 1.273-2.421 1.492-3.754.197-1.203-.057-2.428-.247-3.633a31.73 31.73 0 0 1-.344-5.647c.047-1.693.226-3.42-.18-5.066-.406-1.648-1.565-3.246-3.23-3.584a1.32 1.32 0 0 0-1.113.174 1.435 1.435 0 0 0-.391.687c-.541 1.655-.435 3.437-.738 5.155-.303 1.719-.657 3.263-2.355 3.626z"/>
    <path fill="#BE6F72" d="M44.098 84.8c.101-.68-.216-1.584-.905-1.56-.635.025-.918.818-.915 1.454.002.636.088 1.365-.362 1.812-.399.395-1.058.383-1.52.704a1.25 1.25 0 0 0-.525 1.024c0 .341.155.668.165 1.009.01.341-.22.736-.559.714a1.536 1.536 0 0 0 .224 1.866c.177.172.409.32.468.56.018.168.005.34-.04.503-.103.675.364 1.431 1.046 1.505-.381.272-.305.91.044 1.227.35.317.852.378 1.322.378a8.049 8.049 0 0 0 3.103-.64 1.85 1.85 0 0 0 .856-.59.736.736 0 0 0-.071-.952c.477.078 1.05.123 1.363-.246.435-.515-.032-1.279-.492-1.777a.985.985 0 0 0 .787-1.288.982.982 0 0 0-.33-.46c-.157-.115-.371-.216-.393-.41-.022-.194.143-.319.211-.49.158-.386-.201-.779-.548-1.012-.822-.545-2.033-.535-2.764-1.085-.73-.55-.27-1.51-.165-2.246z"/>
    <path fill="#3F3D56" d="M94.863 47.55a11.68 11.68 0 0 1-1.794.042.392.392 0 0 0-.43.339l-1.145 8.562a3.471 3.471 0 0 1-.738 1.696 3.695 3.695 0 0 0-.834 2.826V75.56s-.074 1.939 1.42 1.939c1.787.224 3.596.224 5.383 0 0 0 1.196-.226 1.196-2.015V61.162a3.493 3.493 0 0 0-.738-2.847 3.56 3.56 0 0 1-.716-1.687l-1.188-8.742a.39.39 0 0 0-.416-.336z"/>
    <path fill="#000" d="M94.863 47.55a11.68 11.68 0 0 1-1.794.042.392.392 0 0 0-.43.339l-1.145 8.562a3.471 3.471 0 0 1-.738 1.696 3.695 3.695 0 0 0-.834 2.826V75.56s-.074 1.939 1.42 1.939c1.787.224 3.596.224 5.383 0 0 0 1.196-.226 1.196-2.015V61.162a3.493 3.493 0 0 0-.738-2.847 3.56 3.56 0 0 1-.716-1.687l-1.188-8.742a.39.39 0 0 0-.416-.336z" opacity=".1"/>
    <path fill="#0068A7" d="M94.87 61.275h-1.814a2.716 2.716 0 0 0-2.719 2.713v6.807a2.716 2.716 0 0 0 2.72 2.712h1.813a2.716 2.716 0 0 0 2.72-2.712v-6.807a2.716 2.716 0 0 0-2.72-2.713z"/>
    <path fill="#3F3D56" d="M119.241 10.55a11.36 11.36 0 0 1-1.639.737.392.392 0 0 0-.268.476l2.249 8.347a3.454 3.454 0 0 1-.02 1.846 3.685 3.685 0 0 0 .32 2.929l5.616 13.423s.679 1.816 2.059 1.242a21.47 21.47 0 0 0 4.971-2.077s1.016-.668.327-2.317l-5.529-13.217a3.513 3.513 0 0 0-1.779-2.347 3.582 3.582 0 0 1-1.312-1.279l-4.471-7.61a.393.393 0 0 0-.524-.152z"/>
    <path fill="#0068A7" d="M124.55 23.217l-1.673.697a2.71 2.71 0 0 0-1.463 3.548l2.628 6.282a2.722 2.722 0 0 0 3.557 1.459l1.673-.697a2.71 2.71 0 0 0 1.462-3.548l-2.627-6.282a2.722 2.722 0 0 0-3.557-1.46z"/>
    <path fill="#FBBEBE" d="M50.186 62.031c-2.645 1.088-3.69 4.47-3.07 7.254.62 2.784 2.487 5.104 4.308 7.31l5.103 6.211c1.41 1.719 2.953 3.528 5.104 4.127 3.145.876 6.29-1.122 9.009-2.929a135.822 135.822 0 0 1 25.876-13.442c.889-.344 1.8-.693 2.53-1.306 1.516-1.272 1.941-3.616 1.097-5.4-.844-1.786-2.81-2.947-4.79-2.962-1.981-.014-3.908 1.032-5.1 2.613-.568.753-.983 1.615-1.532 2.38-1.388 1.925-3.553 3.116-5.672 4.191A145.035 145.035 0 0 1 67.3 76.952c-.984.358-2.094.7-3.021.225-.569-.292-.953-.844-1.297-1.384a34.347 34.347 0 0 1-3.716-7.9c-.672-2.086-1.215-4.36-2.83-5.842-2.288-2.102-6.432-1.598-8.147.982 0 0-2.01 2.933-.78 4.16 1.23 1.228 2.677-5.162 2.677-5.162zM188.192 51.873c.36.955.369 2 .318 3.02-.064 1.242-.377 2.7-1.533 3.173-.753.302-1.683.074-2.353.53-.812.55-.772 1.734-.647 2.701.347 2.659.738 5.416 2.19 7.664.78 1.205 1.836 2.21 2.906 3.17 2.134 1.919 4.474 3.794 7.276 4.435.457.129.937.149 1.403.06a2.906 2.906 0 0 0 1.213-.737c1.624-1.488 2.461-3.611 3.544-5.536.765-1.377 1.678-2.7 2.108-4.217a7.36 7.36 0 0 0-2.258-7.43c-.48-.411-1.012-.755-1.477-1.18-1.215-1.1-1.924-2.678-2.215-4.288-.29-1.61-.246-3.267-.105-4.91-2.461-.189-4.905.108-7.306.587-1.068.214-2.572.312-3.539.82-1.087.577.177 1.316.475 2.138z"/>
    <path fill="#000" d="M188.192 51.873c.36.955.369 2 .318 3.02-.064 1.242-.377 2.7-1.533 3.173-.753.302-1.683.074-2.353.53-.812.55-.772 1.734-.647 2.701.347 2.659.738 5.416 2.19 7.664.78 1.205 1.836 2.21 2.906 3.17 2.134 1.919 4.474 3.794 7.276 4.435.457.129.937.149 1.403.06a2.906 2.906 0 0 0 1.213-.737c1.624-1.488 2.461-3.611 3.544-5.536.765-1.377 1.678-2.7 2.108-4.217a7.36 7.36 0 0 0-2.258-7.43c-.48-.411-1.012-.755-1.477-1.18-1.215-1.1-1.924-2.678-2.215-4.288-.29-1.61-.246-3.267-.105-4.91-2.461-.189-4.905.108-7.306.587-1.068.214-2.572.312-3.539.82-1.087.577.177 1.316.475 2.138z" opacity=".1"/>
    <path fill="#FBBEBE" d="M174.462 59.098c-3.997-1.368-5.906-6.71-10.089-7.309-.66-.095-1.336-.058-1.984-.21-2.409-.57-3.445-3.349-4.141-5.718-2.347-7.897-5.414-15.625-9.769-22.626-1.838-2.946-4.744-5.366-6.071-8.592-.305-.736-.46-1.576-1.008-2.158-.549-.582-1.723-.665-2.021.076a1.721 1.721 0 0 0-.054.813l.288 3.056-5.005-.45a2.928 2.928 0 0 0-1.385.1c-.483.24-.868.64-1.09 1.13-1.693 3.175.11 7.333 3.098 9.341 3.489 2.345 8.472 2.7 10.79 6.199 1.378 2.082 1.405 4.76 2.313 7.084.433 1.113 1.065 2.134 1.57 3.211.962 2.055 1.454 4.289 2.2 6.43 1.068 3.06 2.65 5.913 4.227 8.749 1.216 2.19 2.461 4.418 4.331 6.093 1.23 1.1 2.677 1.914 4.124 2.7 3.558 1.94 7.754 3.805 11.524 2.317.216-3.353-.628-7.092-1.848-10.236zM186.595 164.773c-.302 3.204-2.251 6.105-2.707 9.189a111.012 111.012 0 0 1-8.816-1.761c-.352-.083-.702-.169-1.053-.245 1.619-4.419.209-9.368.637-14.074.042-.451.101-.903.18-1.35 3.708-1.261 7.057-2.945 10.945-2.455l.231 2.36c.156 1.569.31 3.137.463 4.703.156 1.204.196 2.421.12 3.633zM212.241 172.786a49.166 49.166 0 0 1-5.303 1.298c-1.6.3-3.219.518-4.855.668-.167-3.412-2.461-6.549-2.795-10.052-.069-.871-.06-1.746.027-2.615.029-.344.064-.687.096-1.031l.694-7.062c.552-.07 1.109-.097 1.665-.081 3.199.076 6.11 1.458 9.28 2.535.236 1.49.318 3.001.246 4.507-.121 3.835-.738 7.716.689 11.234.081.199.17.397.256.599z"/>
    <path fill="#F86D70" d="M170.704 118.941c.431 3.349-1.284 6.555-2.027 9.847-.493 2.177-.559 4.419-.626 6.652l-.388 13.382c-.04 1.338-.074 2.7.334 3.984.822 2.573 3.354 4.311 5.99 4.929 2.635.619 5.391.305 8.076-.049 1.316-.174 2.689-.378 3.779-1.136 1.499-1.044 2.154-2.902 2.719-4.635l1.597-4.893c1.839 4.129 1.061 8.644 2.163 13.026.071.405.24.787.493 1.112.465.515 1.23.596 1.926.645 4.823.339 9.713.675 14.457-.245 1.304-.246 2.665-.643 3.566-1.62 1.048-1.137 1.23-2.809 1.218-4.353-.067-5.305-1.989-10.423-2.417-15.711-.184-2.266-.093-4.544-.175-6.817a45.52 45.52 0 0 0-.479-5.106 6.884 6.884 0 0 0-.63-2.234c-.739-1.374-2.272-2.121-3.723-2.7-11.28-4.571-23.687-4.527-35.853-4.078z"/>
    <path fill="#FBBEBE" d="M191.588 53.071c5.844 0 10.581-4.726 10.581-10.556 0-5.83-4.737-10.556-10.581-10.556-5.844 0-10.581 4.726-10.581 10.556 0 5.83 4.737 10.556 10.581 10.556z"/>
    <path fill="#E3E8F4" d="M200.811 61.108c-.785 1.719-2.02 3.437-3.859 3.874-1.69.405-3.481-.408-4.727-1.618-1.245-1.21-2.059-2.781-2.923-4.286-.63-1.1-1.331-2.21-2.397-2.902-1.456-.942-3.336-.918-5.054-.64-1.717.277-3.423.773-5.167.66-2.173-.145-4.388-1.227-6.438-.506.665 2.966.426 6.226.35 9.265.013.47-.054.937-.197 1.384-.179.417-.42.805-.716 1.15l-1.969 2.53c2.112 1.576 3.937 3.633 4.676 6.16.416 1.438.288 2.965.273 4.462-.047 4.397.91 8.776.608 13.163-.355 5.138-2.412 9.994-3.472 15.033a39.25 39.25 0 0 0-.507 13.158c11.029 3.808 22.392 5.757 34.051 6.395 2.06.113 4.284.13 5.974-1.051 1.406-.981 2.193-2.663 2.461-4.357.268-1.694.084-3.417-.103-5.121-.507-4.607-1.013-9.213-1.518-13.82-.288-2.622-.576-5.259-.389-7.888.14-1.964.544-3.89.945-5.813l2.46-11.798c.352-1.676.707-3.365 1.403-4.929.571-1.276 1.361-2.455 1.991-3.697a16.304 16.304 0 0 0 1.535-4.73c.107-.478.1-.974-.019-1.449-.264-.805-1.068-1.288-1.819-1.684a52.904 52.904 0 0 0-14.557-5.093c-.345 1.445-.279 2.8-.896 4.148z"/>
    <path fill="#3F3D56" d="M199.79 54.038c1.23-2.351 3.531-4.001 4.867-6.299a9.296 9.296 0 0 0 .3-8.592c-.47-.957-1.107-1.836-1.476-2.838-.411-1.139-.451-2.393-.926-3.508-.652-1.527-2.064-2.626-3.602-3.26-1.538-.633-3.199-.861-4.855-1.082l-5.591-.751c-.809-.108-1.648-.216-2.436 0-.787.216-1.52.856-1.584 1.671-.077.965.772 1.864.575 2.811-.071.334-.268.673-.155.997.101.216.275.39.492.49 1.327.737 2.911.804 4.349 1.285 1.437.48 2.879 1.689 2.733 3.191-.078.808-.6 1.647-.246 2.371.34.67 1.231.793 1.942 1.002 2.301.665 3.915 3.154 3.58 5.523-.103.737-.369 1.441-.423 2.18-.18 2.588.229 3.327 2.347 4.831l.109-.022z"/>
    <path fill="#BE6F72" d="M214.163 65.227a3.58 3.58 0 0 1-.264 1.431c-.768 1.633-3.117 1.53-4.675 2.455-1.939 1.154-2.367 3.73-2.544 5.973-.202 2.54-.34 5.118.182 7.61.521 2.492 1.776 4.922 3.873 6.383 2.552 1.77 6.021 1.83 8.935.753 2.913-1.078 5.347-3.162 7.458-5.44 2.003-2.16 3.797-4.568 4.872-7.31.19-.491.357-1.012.204-1.503-.228-.736-1.033-1.07-1.688-1.473-1.528-.92-2.546-2.526-3.076-4.222-.529-1.696-.617-3.5-.634-5.28-.02-1.849-.025-3.869-1.206-5.295-1.181-1.426-3.229-1.827-5.094-1.812-1.525 0-5.748.145-6.789 1.473-.854 1.105.507 4.676.446 6.257z"/>
    <path fill="#000" d="M214.163 65.227a3.58 3.58 0 0 1-.264 1.431c-.768 1.633-3.117 1.53-4.675 2.455-1.939 1.154-2.367 3.73-2.544 5.973-.202 2.54-.34 5.118.182 7.61.521 2.492 1.776 4.922 3.873 6.383 2.552 1.77 6.021 1.83 8.935.753 2.913-1.078 5.347-3.162 7.458-5.44 2.003-2.16 3.797-4.568 4.872-7.31.19-.491.357-1.012.204-1.503-.228-.736-1.033-1.07-1.688-1.473-1.528-.92-2.546-2.526-3.076-4.222-.529-1.696-.617-3.5-.634-5.28-.02-1.849-.025-3.869-1.206-5.295-1.181-1.426-3.229-1.827-5.094-1.812-1.525 0-5.748.145-6.789 1.473-.854 1.105.507 4.676.446 6.257z" opacity=".1"/>
    <path fill="#BE6F72" d="M201.042 131.061c.076.374.253.72.512 1.001.243.192.526.325.829.391 8.076 2.364 16.703 1.421 25.065.456-1.144-3.476-2.296-6.991-2.613-10.636-.264-3.008.031-6.137-1.036-8.958-.315-.835-18.672 3.007-20.483 3.319-.928.159-1.996.105-2.653.839-.792.889-.859 3.005-.942 4.112-.237 3.199.425 6.42 1.321 9.476zM219.431 170.029c-1.476.682-3 1.318-4.577 1.888-.853.309-1.724.599-2.613.869a49.166 49.166 0 0 1-4.516 1.144c-.89-2.254-1.782-4.508-2.674-6.763-.657-1.66-1.314-3.327-1.863-5.023a31.21 31.21 0 0 1-.94-3.533 25.137 25.137 0 0 1 .61-12.217c3.411.641 6.745 1.058 10.104 1.544 1.794.245 3.593.535 5.413.876.143 1.184.273 2.367.389 3.55.177 1.826.323 3.653.436 5.479.251 4.059.328 8.121.231 12.186z"/>
    <path fill="#000" d="M219.431 170.029c-1.476.682-3 1.318-4.577 1.888-.853.309-1.724.599-2.613.869a49.166 49.166 0 0 1-4.516 1.144c-.89-2.254-1.782-4.508-2.674-6.763-.657-1.66-1.314-3.327-1.863-5.023a31.21 31.21 0 0 1-.94-3.533 25.137 25.137 0 0 1 .61-12.217c3.411.641 6.745 1.058 10.104 1.544 1.794.245 3.593.535 5.413.876.143 1.184.273 2.367.389 3.55.177 1.826.323 3.653.436 5.479.251 4.059.328 8.121.231 12.186z" opacity=".1"/>
    <path fill="#BE6F72" d="M238.354 159.392c.02 1.414-.384 2.858-.758 4.245a9.619 9.619 0 0 0-.076.292 4.059 4.059 0 0 1-2.173-1.625 4.66 4.66 0 0 1-.583-1.363 232.135 232.135 0 0 1-3.372 2.246c-3.708 2.431-7.628 4.844-11.961 6.842-1.476.682-3 1.318-4.577 1.888-.328-1.146-.64-2.299-.935-3.459a31.887 31.887 0 0 1-.758-3.631c-.36-2.78-.081-5.605.817-8.26l.111-.319a17.994 17.994 0 0 1 1.612-3.386c.612-.982 1.825-.817 3.063-.491.561.145 1.13.319 1.646.427 3.216.673 6.556-.022 9.843.163 1.567.078 3.102.467 4.516 1.146 1.582.793 2.856 2.005 3.356 3.682.071.242.125.488.162.737.042.287.064.576.067.866zM179.154 46.335c-5.081-4.91-10.856-9.07-16.765-12.962a46.083 46.083 0 0 1-4.429-3.15c-1.476-1.226-2.763-2.668-4.331-3.772-1.567-1.105-3.506-1.863-5.389-1.5-1.882.363-3.555 2.16-3.28 4.04.246 1.655 1.738 2.79 3.116 3.74 2.608 1.799 5.229 3.603 8.066 5.014.985.446 1.941.955 2.862 1.523 1.766 1.188 3.053 2.945 4.389 4.597a64.058 64.058 0 0 0 18.21 15.466c.083.049 2.994-6.218 2.871-7.03-.27-1.869-3.981-4.67-5.32-5.966z"/>
    <path fill="#3F3D56" d="M222.615 125.665c-3.922.246-7.685 1.567-11.521 2.409-3.836.842-8.005 1.168-11.565-.491l2.165 14.751c.121.82.246 1.659.067 2.467-.165.771-.593 1.497-.556 2.285.056 1.247 1.23 2.124 2.335 2.7a20.91 20.91 0 0 0 10.433 2.399c-.268 1.08-.603 2.148-.873 3.228 1.808 1.937 4.766 2.067 7.347 2.681 1.969.464 3.814 1.269 5.744 1.836a24.578 24.578 0 0 0 7.187.999c1.642-.017 3.381-.246 4.656-1.267 1.567-1.259 2.055-3.4 2.394-5.378.19-1.105.364-2.224.246-3.339-.128-1.281-.625-2.494-1.117-3.682l-3.371-8.162c-.613-1.473-1.23-2.968-1.969-4.39-2.411-4.598-6.412-9.367-11.602-9.046z"/>
    <path fill="#0068A7" d="M225.617 74.698a3.698 3.698 0 0 1 3.864-2.35c.984.138 1.862.676 2.706 1.201l4.7 2.926c.779.463 1.526.976 2.237 1.537 3.241 2.68 4.491 7.087 4.848 11.273.356 4.185 0 8.442.834 12.559-1.984 1.639-4.183 3.026-6.167 4.664-1.038.857-2.089 1.718-2.876 2.82-.625.867-1.071 1.859-1.723 2.701a6.519 6.519 0 0 1-4.313 2.391c1.075.623 1.678 1.833 1.968 3.039.291 1.205.369 2.455.692 3.66.443 1.637 1.36 3.132 1.663 4.802.212 1.151.118 2.332.194 3.5.384 6.046 5.141 11.332 4.833 17.38a26.46 26.46 0 0 1-6.314-3.311 51.968 51.968 0 0 1-2.552-1.979l-6.267-5.069c-3.049-2.455-6.127-4.964-8.551-8.047-1.521-1.934-2.761-4.075-4.287-6.004-1.525-1.93-3.403-3.683-5.733-4.493-.342.513-.95.869-1.292 1.382a1.06 1.06 0 0 0-.143.265c-.041.229-.013.465.082.678.274.993.44 2.013.492 3.041l.155 1.847c.058.489.058.983 0 1.472-.234 1.579-1.701 2.804-3.283 3.049-.229.05-.466.042-.691-.022-.441-.147-.684-.611-.817-1.053-.623-2.096.332-4.308.408-6.49a15.588 15.588 0 0 0-.056-1.66l-.148-2.177c-1.43-.297-2.252-1.829-2.63-3.236-1.024-3.797-2.055-7.728-1.462-11.616.157-1.041.433-2.097.246-3.137-.246-1.392-1.25-2.522-1.779-3.832-1.723-4.274 1.936-8.914 1.597-13.502-.143-1.927-1.368-3.601-2.107-5.388a15.211 15.211 0 0 0-1.476-2.973c-.753-1.073-1.769-1.932-2.756-2.796a105.209 105.209 0 0 1-8.657-8.509 6.407 6.407 0 0 1-3.728-1.703c-.649-.614-1.183-1.424-1.2-2.315-.018-.891.642-1.827 1.535-1.873.522-.027 1.009.23 1.518.343 1.595.349 3.199-.822 3.91-2.292.711-1.47.711-3.162.699-4.792a4.618 4.618 0 0 1 4.265 1.49c1.1 1.193 1.816 2.68 2.682 4.05a6.281 6.281 0 0 0 1.338 1.613c1.184.938 2.889 1.115 3.923 2.21.524.56.814 1.3 1.294 1.9 1.349 1.686 3.817 1.892 5.66 3.002 1.843 1.11 3.125 3.137 5.167 3.795.738.246 1.543.277 2.274.55 1.688.626 2.719 2.415 2.953 4.195.233 1.78-.165 3.58-.569 5.332l-.947 4.102c-.209.908-.369 2 .303 2.649.317.262.69.449 1.09.547 1.722.56 3.641 1.11 5.261.317.765-.378 1.365-1.016 1.914-1.67 2.402-2.822 3.999-6.52 5.219-9.993z"/>
    <path fill="#BE6F72" d="M245.04 158.175c-.34 2.246-1.58 4.455-3.61 5.484a5.185 5.185 0 0 1-3.91.27 4.059 4.059 0 0 1-2.173-1.625 4.637 4.637 0 0 1-.583-1.363c0-.024-.013-.051-.017-.076a10.766 10.766 0 0 1-.229-2.644 34.192 34.192 0 0 1 .246-4.121c.137-1.152.364-2.291.679-3.408.458-1.593 1.117-3.127 1.722-4.664.315-.81.618-1.623.867-2.455.15-.491.278-.996.381-1.507l.037-.184c.02-.103.037-.206.054-.309.246-1.4.317-2.848.95-4.112 1.476-2.968 4.35-2.21 4.788.528.034.212.052.426.057.64.066 3.464-1.312 6.849-.682 10.325.178.848.401 1.685.67 2.509.221.759.42 1.527.573 2.305.309 1.448.37 2.938.18 4.407z"/>
    <path fill="#0068A7" d="M246.393 119.658c.066 1.419 0 2.855.285 4.247.667 3.29 3.199 6.201 2.919 9.544-.069.815-.372 1.692-1.085 2.094-.714.403-1.895.371-2.129 1.181-.066.226-.032.472-.106.695-.155.476-.738.68-1.23.668-.492-.013-.984-.175-1.494-.133-1.784.15-2.438 2.531-4.028 3.348-1.07.55-2.461.246-3.344-.567-.883-.812-1.27-2.079-1.201-3.279.052-.906.34-1.78.492-2.674.278-1.593.133-3.225-.012-4.836-.214-2.359-.436-4.747-1.213-6.984-.367-1.055-.854-2.064-1.171-3.134-.453-1.515-.557-3.108-.603-4.687-.096-3.321.133-6.873 2.121-9.544 1.493-2.003 3.634-3.631 5.325-5.484 1.058-1.161 1.363-1.525 2.532-.54.962.807 1.968 1.922 2.077 3.017.295 2.806 0 5.565.526 8.422.527 2.858 1.201 5.713 1.339 8.646z"/>
    <path fill="#BE6F72" d="M220.871 65.59c6.931 0 12.549-5.605 12.549-12.519s-5.618-12.52-12.549-12.52c-6.931 0-12.55 5.606-12.55 12.52s5.619 12.52 12.55 12.52z"/>
    <path fill="#3F3D56" d="M232.362 77.02c.276-.385.603-.8 1.071-.881a1.87 1.87 0 0 1 1.018.214l3.305 1.377a10.733 10.733 0 0 0 1.535-4.851c.069-1.053-.014-2.12.187-3.157.301-1.537 1.214-2.914 1.425-4.465.168-1.252-.135-2.512-.317-3.761-.561-3.859.042-7.797-.281-11.683-.322-3.886-1.885-8.049-5.359-9.834-.984-.49-2.045-.785-3.069-1.173-2.281-.867-4.326-2.254-6.58-3.191-2.254-.938-4.901-1.368-7.086-.29-2.185 1.078-3.458 4.11-2.038 6.088.468.65 1.152 1.112 1.806 1.58 1.332.95 2.69 2.124 2.997 3.73.552 2.89-2.46 5.155-3.309 7.98a6.753 6.753 0 0 0-.081 3.386c.366 1.674 1.262 3.255 1.23 4.968-.025 1.878-1.152 3.58-1.363 5.447-.077.685-.03 1.38-.116 2.063-.152.9-.419 1.777-.795 2.61-1.968 4.909-3.964 9.87-6.89 14.284a19.002 19.002 0 0 0 9.014-2.102 14.84 14.84 0 0 1-2.257 5.288 17.108 17.108 0 0 0 7.053-2.455 22.878 22.878 0 0 1-2.239 5.305c.083-.142 1.631-.49 1.916-.653a3.336 3.336 0 0 0 1.354-1.44c.836-1.493 1.358-3.293 2.133-4.844a70.453 70.453 0 0 1 5.736-9.54zM137.187 1.89a11.68 11.68 0 0 1-1.794.042.393.393 0 0 0-.431.339l-1.144 8.562a3.472 3.472 0 0 1-.738 1.696 3.682 3.682 0 0 0-.834 2.826V29.9s-.074 1.94 1.42 1.94c1.787.223 3.596.223 5.384 0 0 0 1.195-.227 1.195-2.016V15.502a3.488 3.488 0 0 0-.738-2.848 3.564 3.564 0 0 1-.716-1.686l-1.188-8.741a.39.39 0 0 0-.416-.337z"/>
    <path fill="#0068A7" d="M137.194 15.615h-1.813a2.716 2.716 0 0 0-2.719 2.713v6.807a2.716 2.716 0 0 0 2.719 2.713h1.813a2.716 2.716 0 0 0 2.719-2.713v-6.807a2.716 2.716 0 0 0-2.719-2.713z"/>
    <path fill="#3F3D56" d="M154.166 14.41c-.596.06-1.196.074-1.794.042a.392.392 0 0 0-.431.338l-1.144 8.563a3.473 3.473 0 0 1-.738 1.696 3.681 3.681 0 0 0-.834 2.826v14.544s-.074 1.94 1.42 1.94c1.787.224 3.596.224 5.384 0 0 0 1.195-.226 1.195-2.016V28.022a3.487 3.487 0 0 0-.738-2.848 3.565 3.565 0 0 1-.716-1.686l-1.188-8.742a.39.39 0 0 0-.416-.336z"/>
    <path fill="#0068A7" d="M154.173 28.135h-1.814a2.716 2.716 0 0 0-2.719 2.712v6.808a2.716 2.716 0 0 0 2.719 2.712h1.814a2.716 2.716 0 0 0 2.719-2.712v-6.808a2.716 2.716 0 0 0-2.719-2.712z"/>
    <g opacity=".2">
      <path fill="#3F3D56" d="M135.081 161.093a4.732 4.732 0 0 1-.091.788 167.724 167.724 0 0 0-5.168-.736v-.211a4.135 4.135 0 0 1 .615-2.082c.507-.8 1.277-1.301 2.126-1.274.849.027 1.585.574 2.04 1.402.344.65.509 1.379.478 2.113z"/>
      <path fill="#3F3D56" d="M135.219 156.901c.06-1.898-1.07-3.474-2.523-3.52-1.454-.046-2.681 1.456-2.741 3.355-.06 1.898 1.07 3.474 2.523 3.52 1.454.046 2.681-1.456 2.741-3.355z"/>
      <path fill="#3F3D56" d="M135.353 152.699c.06-1.899-1.069-3.475-2.523-3.521-1.453-.046-2.68 1.456-2.74 3.355-.061 1.898 1.069 3.474 2.522 3.52 1.454.046 2.681-1.456 2.741-3.354z"/>
      <path fill="#3F3D56" d="M135.485 148.496c.06-1.899-1.07-3.475-2.523-3.521-1.453-.045-2.68 1.456-2.741 3.355-.06 1.898 1.07 3.475 2.523 3.52 1.454.046 2.681-1.456 2.741-3.354z"/>
      <path fill="#3F3D56" d="M135.619 144.293c.06-1.898-1.069-3.475-2.523-3.52-1.453-.046-2.68 1.456-2.74 3.354-.06 1.899 1.069 3.475 2.522 3.521 1.454.046 2.681-1.456 2.741-3.355z"/>
      <path fill="#0068A7" d="M124.032 115.129c-.347-.468-.659-.96-.935-1.473l6.954-.915-7.486-.18a12.583 12.583 0 0 1 .077-9.976l9.872 5.511-9.043-7.08a12.63 12.63 0 0 1 13.436-5.676 12.638 12.638 0 0 1 4.699 2.101 12.594 12.594 0 0 1 5.122 8.663 12.56 12.56 0 0 1-2.873 9.641c.539.728.997 1.513 1.366 2.34l-9.127 4.369 9.678-2.904c.61 2.007.708 4.133.286 6.186a12.593 12.593 0 0 1-2.702 5.575 12.567 12.567 0 0 1 1.014 13.322 12.598 12.598 0 0 1-4.816 5.022 12.636 12.636 0 0 1-13.385-.421 12.595 12.595 0 0 1-4.49-5.315 12.564 12.564 0 0 1 1.854-13.231 12.568 12.568 0 0 1 .492-15.559h.007z"/>
      <path fill="#000" d="M146.31 123.618a12.5 12.5 0 0 1-2.954 7.693 12.569 12.569 0 0 1-3.802 18.344 12.636 12.636 0 0 1-13.385-.421 12.595 12.595 0 0 1-4.49-5.315 12.564 12.564 0 0 1 1.853-13.231c-1.616-2.192 22.821-8.482 22.777-7.07z" opacity=".1"/>
    </g>
  </g>
</svg>
