<svg xmlns="http://www.w3.org/2000/svg" viewBox="0 0 413 395">
  <defs>
    <linearGradient id="a" x1="-2.778%" x2="89.849%" y1="37.492%" y2="69.538%">
      <stop offset="0%" stop-color="#2298BD"/>
      <stop offset="100%" stop-color="#0ED7B5"/>
    </linearGradient>
  </defs>
  <g fill="none" fill-rule="evenodd">
    <path fill="#F2F2F2" fill-rule="nonzero" d="M354.177 147.824C332.682 63.434 258.409 2.518 171.228.074c-46.09-1.291-94.589 13.97-129.9 67.375-63.122 95.468 3.879 161.439 50.59 192.787a292.104 292.104 0 0 1 60.415 54.213c31.552 37.381 92.251 83.833 164.541 11.05 52.396-52.753 51.621-121.464 37.303-177.675z"/>
    <path fill="#3F3D56" fill-rule="nonzero" d="M412.522 335.753c0 20.715-90.539 59.247-204.586 59.247C93.889 395 0 358.857 0 338.142c0-20.714 93.889-18.156 207.936-18.156 114.047 0 204.586-4.947 204.586 15.767z"/>
    <path fill="#000" fill-rule="nonzero" d="M412.522 335.753c0 20.715-90.539 59.247-204.586 59.247C93.889 395 0 358.857 0 338.142c0-20.714 93.889-18.156 207.936-18.156 114.047 0 204.586-4.947 204.586 15.767z" opacity=".1"/>
    <path fill="#3F3D56" fill-rule="nonzero" d="M206.5 375.41c114.047 0 206.5-16.792 206.5-37.507 0-20.714-92.453-37.506-206.5-37.506S0 317.189 0 337.903c0 20.715 92.453 37.507 206.5 37.507z"/>
    <path fill="#2F2E41" fill-rule="nonzero" d="M284.677 210.344v100.31l16.806 27.345 1.279 2.079h66.312l1.339-129.734z"/>
    <path fill="#000" fill-rule="nonzero" d="M284.677 210.344v100.31l16.806 27.344 1.031-127.654z" opacity=".1"/>
    <path fill="#2F2E41" fill-rule="nonzero" d="M124.593 207.668v100.311l-16.806 27.344-1.279 2.08H40.196l-1.339-129.735z"/>
    <path fill="#000" fill-rule="nonzero" d="M124.593 207.668v100.311l-16.806 27.344-1.032-127.655z" opacity=".1"/>
    <path fill="#2F2E41" fill-rule="nonzero" d="M390.508 205.662v6.019H30.15v-8.694l33.49-17.386h297.396z"/>
    <path fill="#000" fill-rule="nonzero" d="M390.508 205.662v6.019H30.15v-8.694zM81.725 235.756H65.649l-6.698-4.682h30.142zM81.725 255.149H65.649l-6.698-4.682h30.142zM81.725 282.567H65.649l-6.698-4.681h30.142zM81.725 309.985H65.649l-6.698-4.681h30.142zM327.545 238.43h16.076l6.698-4.681h-30.142zM327.545 257.824h16.076l6.698-4.681h-30.142zM327.545 285.242h16.076l6.698-4.681h-30.142zM327.545 312.66h16.076l6.698-4.682h-30.142z" opacity=".1"/>
    <path fill="#3F3D56" fill-rule="nonzero" d="M254.842 168.866l-2.234 14.241s-10.999 5.834-3.265 6.006c7.734.172 44.169 0 44.169 0s7.046 0-4.125-6.177l-2.234-14.928-32.311.858z"/>
    <path fill="#000" fill-rule="nonzero" d="M247.787 188.958a30.45 30.45 0 0 1 4.821-3.186l2.234-14.242 32.311.031 2.234 14.04a29.345 29.345 0 0 1 5.163 3.391c1.435-.326 3.003-1.541-5.163-6.056l-2.234-14.928-32.311.858-2.234 14.241s-9.243 4.903-4.821 5.851z" opacity=".1"/>
    <path fill="#3F3D56" fill-rule="nonzero" d="M338.492 69.601H203.159a5.114 5.114 0 0 0-5.118 5.11v91.018a5.114 5.114 0 0 0 5.118 5.11h135.333a5.114 5.114 0 0 0 5.118-5.11V74.711a5.114 5.114 0 0 0-5.118-5.11z"/>
    <path fill="#F2F2F2" fill-rule="nonzero" d="M338.713 75.006H202.939v75.843h135.774zM270.826 73.462a.859.859 0 1 0 0-1.717.859.859 0 0 0 0 1.717z"/>
    <path fill="#3F3D56" fill-rule="nonzero" d="M343.61 156.854v8.875a5.104 5.104 0 0 1-3.159 4.721 5.124 5.124 0 0 1-1.959.389H203.159a5.124 5.124 0 0 1-4.729-3.155 5.104 5.104 0 0 1-.389-1.955v-8.875H343.61z"/>
    <path fill="#F2F2F2" fill-rule="nonzero" d="M270.826 167.15a3.263 3.263 0 0 0 3.265-3.261c0-1.8-1.462-3.26-3.265-3.26a3.263 3.263 0 0 0-3.265 3.26 3.263 3.263 0 0 0 3.265 3.261z"/>
    <path fill="#3F3D56" fill-rule="nonzero" d="M265.737 198.379v1.716h-92.463v-1.373l.127-.343 2.279-6.177h88.167zM301.32 196.699c-.168.719-.804 1.477-2.241 2.195-5.156 2.574-15.64-.687-15.64-.687s-8.078-1.372-8.078-4.976c.227-.155.464-.295.708-.42 2.168-1.145 9.356-3.971 22.1.119a5.32 5.32 0 0 1 2.422 1.585 2.534 2.534 0 0 1 .729 2.184z"/>
    <path fill="#000" fill-rule="nonzero" d="M301.32 196.699c-6.311 2.414-11.936 2.594-17.709-1.409-2.911-2.018-5.556-2.517-7.541-2.479 2.167-1.145 9.355-3.971 22.099.119a5.32 5.32 0 0 1 2.422 1.585 2.534 2.534 0 0 1 .729 2.184z" opacity=".1"/>
    <path fill="#F2F2F2" fill-rule="nonzero" d="M293.408 195.29c1.233 0 2.234-.307 2.234-.686 0-.379-1.001-.686-2.234-.686-1.234 0-2.235.307-2.235.686 0 .379 1.001.686 2.235.686z"/>
    <path fill="#000" fill-rule="nonzero" d="M265.737 198.379v1.716h-92.463v-1.373l.127-.343z" opacity=".1"/>
    <path fill="#FFB9B9" fill-rule="nonzero" d="M188.86 92.76c10.109 0 18.303-8.182 18.303-18.274 0-10.093-8.194-18.275-18.303-18.275s-18.304 8.182-18.304 18.275c0 10.092 8.195 18.274 18.304 18.274z"/>
    <path fill="#FFB9B9" fill-rule="nonzero" d="M175.373 83.623v28.854h29.863s-3.853-24.045-1.926-31.259l-27.937 2.405z"/>
    <path fill="#D0CDE1" fill-rule="nonzero" d="M234.618 122.575S206.2 108.629 206.2 107.668c0-.962-2.89-7.214-4.817-7.214s-18.304-5.29-27.455 2.405l-.964 6.251-35.162 23.083 9.634 35.106s6.262 6.732 4.335 11.541c-1.927 4.809 1.445 29.335 1.445 29.335l75.622-2.405v-32.701s2.408-7.694 3.853-10.098c1.445-2.405 0-9.618 0-9.618l11.56-14.427s-1.445-13.465-9.633-16.351z"/>
    <path fill="#000" fill-rule="nonzero" d="M139.007 143.975l2.167-11.782s-12.523 54.342-11.078 60.593c1.445 6.252 12.042 15.87 13.487 16.351 1.445.481 14.932-41.357 14.932-41.357l-19.508-23.805z" opacity=".1"/>
    <path fill="#D0CDE1" fill-rule="nonzero" d="M145.991 130.751l-8.188 1.442s-12.524 54.342-11.079 60.593c1.445 6.252 12.042 15.87 13.487 16.351 1.445.481 14.932-41.357 14.932-41.357l-9.152-37.029z"/>
    <path fill="#000" fill-rule="nonzero" d="M237.268 146.861l4.094-7.935s5.78 54.341 1.926 59.631c-3.853 5.29-19.096 7.269-19.096 7.269l-.17-39.489 13.246-19.476z" opacity=".1"/>
    <path fill="#D0CDE1" fill-rule="nonzero" d="M237.99 132.674l6.261 6.252s5.78 54.341 1.927 59.631c-3.853 5.29-19.096 7.269-19.096 7.269l-.171-39.489 11.079-33.663z"/>
    <path fill="#3F3D56" fill-rule="nonzero" d="M144.546 215.388s-13.968-5.29-16.377 4.809c-2.408 10.099 5.78 55.303 5.78 55.303s5.299 34.144 8.67 35.106c3.372.962 18.304 1.443 20.712-2.886 2.408-4.328-7.225-48.57-7.225-48.57l55.874-.962s-3.372 38.472-5.299 41.838c-1.926 3.366-1.926 14.908 0 14.908 1.927 0 23.121-.962 24.566-3.847 1.445-2.886 9.633-67.807 9.633-67.807s6.743-22.602-.963-21.159c-7.707 1.443-95.371-6.733-95.371-6.733z"/>
    <path fill="#2F2E41" fill-rule="nonzero" d="M226.912 309.163s4.816-3.366 7.225 0c2.408 3.367 3.371 7.214-7.225 12.984-10.597 5.771-18.786 4.328-18.786 3.367v-13.946l18.786-2.405zM143.583 307.72s-4.817-3.366-7.225 0c-2.409 3.367-3.372 7.214 7.225 12.984 10.597 5.771 18.785 4.329 18.785 3.367v-13.946l-18.785-2.405zM188.978 51.444a15.493 15.493 0 0 0-5.375.765 20.767 20.767 0 0 0-3.83 2.023l-8.081 5.017a3.77 3.77 0 0 0-2.281 3.521l-1.01 7.55c-.254 1.906-.489 3.943.365 5.666.713 1.438 2.073 2.421 3.191 3.574a13.11 13.11 0 0 1 3.463 6.718c.578 3.152.208 6.948 2.707 8.96 1.352 1.09 3.196 1.295 4.932 1.397 4.744.276 9.504.093 14.213-.547a5.665 5.665 0 0 0 2.148-.6c.849-.502 1.384-1.387 1.884-2.237 1.804-3.067 3.664-6.33 3.644-9.888-.009-1.76-.46-3.65.386-5.193a20.28 20.28 0 0 1 1.454-1.885c1.048-1.47 1.252-3.359 1.422-5.155.546-5.738-.024-10.104-4.26-14.146-3.954-3.773-9.579-5.505-14.972-5.54z"/>
    <path fill="#2F2E41" fill-rule="nonzero" d="M144.017 272.201l-16.075 81.586h8.037l15.406-80.248zM195.592 278.889l10.048 93.623h6.698l-6.029-96.298zM223.055 276.214l14.066 62.193h6.698l-13.396-63.531zM169.47 276.214l-2.009 49.486h5.358l4.019-49.486z"/>
    <path fill="#0068A7" fill-rule="nonzero" d="M132.63 263.508s-10.717-71.555 19.425-73.561c30.141-2.006 73.009 0 73.009 0s24.783-2.006 17.415 73.561c0 0 6.698 22.068-53.585 20.062-60.283-2.006-56.264-20.062-56.264-20.062zM407.257 292.728c0 12.478-7.429 16.835-16.595 16.835-9.165 0-16.594-4.357-16.594-16.835 0-12.477 16.594-28.351 16.594-28.351s16.595 15.874 16.595 28.351z"/>
    <path fill="#3F3D56" fill-rule="nonzero" d="M390.228 297.211l7.072-12.919-7.046 11.281.077-4.695 4.874-9.347-4.854 8.104.137-8.445 5.22-7.441-5.198 6.113.086-15.485-.517 19.622-5.286-8.079 5.222 9.734-.494 9.432-.015-.251-6.118-8.534 6.099 9.419-.061 1.179-.011.018.005.097-1.255 12.586h1.677l.201-1.017 6.084-9.396-6.07 8.467z"/>
    <path fill="#2F2E41" fill-rule="nonzero" d="M401.261 336.63h-19.785l-5.113-28.852h28.899z"/>
    <path fill="#3F3D56" fill-rule="nonzero" d="M110.548 141.571H69.392v48.175h41.156z"/>
    <path fill="#F2F2F2" fill-rule="nonzero" d="M104.162 149.046H75.778v33.224h28.384z"/>
    <path fill="#4DBA87" fill-rule="nonzero" d="M278.451 84.267l-7.296 12.77-7.297-12.77h-24.294l31.591 55.3 31.59-55.3z"/>
    <path fill="#435466" fill-rule="nonzero" d="M279.261 84.267l-8.106 12.163-8.107-12.163h-12.954l21.061 31.6 21.06-31.6z"/>
    <path fill="url(#a)" d="M89.507 160.633c-2.808 0-4.563 1.171-5.265 3.511 1.053-1.17 2.282-1.609 3.686-1.316.8.167 1.373.651 2.007 1.187 1.032.874 2.227 1.885 4.837 1.885 2.808 0 4.564-1.17 5.266-3.511-1.053 1.17-2.282 1.609-3.686 1.317-.801-.168-1.374-.652-2.007-1.188-1.033-.874-2.228-1.885-4.838-1.885zm-5.265 5.267c-2.808 0-4.563 1.17-5.265 3.511 1.053-1.17 2.282-1.609 3.686-1.317.8.168 1.373.652 2.007 1.188 1.032.874 2.227 1.885 4.837 1.885 2.808 0 4.563-1.171 5.265-3.511-1.053 1.17-2.281 1.609-3.685 1.316-.801-.167-1.374-.651-2.008-1.187-1.032-.874-2.227-1.885-4.837-1.885z"/>
  </g>
</svg>
