<svg viewBox="0 0 1366 83" fill="none" xmlns="http://www.w3.org/2000/svg">
  <path opacity="0.2" d="M591.908 28.8244C694.6 36.8786 697.323 38.3559 774.795 27.7571C799.805 24.3355 825.237 25.118 849.981 30.1117C889.209 38.0284 888.194 36.2149 954.223 28.8246C1036.34 19.6321 1065.34 -17.1326 1184.71 17.7213C1264.3 40.9573 1325.72 39.2473 1369 12.5916V74.9997L2.54317e-05 74.9996L0 12.5914C61.758 39.2471 149.42 40.9572 262.986 17.7212C433.335 -17.1328 474.717 19.6319 591.908 28.8244Z" fill="#2E424D"/>
  <path d="M533 30.2421C582.539 50.2833 694.574 48.5924 810.795 30.2419C871.5 17.4999 870.19 47.8794 952.132 37.4114C1034.07 26.9421 1063.01 -14.9288 1182.12 24.766C1261.52 51.2292 1322.82 44.3578 1366 14V82.9997L2.53759e-05 82.9996V12C61.6227 42.3578 152.682 56.7052 266 30.2421C435.284 -9.2913 435.997 -9.00302 531.821 29.7652L533 30.2421Z" fill="currentColor"/>
</svg>
