<svg viewBox="0 0 500 500" version="1.1" xmlns="http://www.w3.org/2000/svg" xmlns:xlink="http://www.w3.org/1999/xlink">
    <g stroke="none" stroke-width="1" fill="none" fill-rule="evenodd">
        <path d="M250,495 C114.690236,495 5,385.309763 5,250 C5,114.690236 114.690236,5 250,5 C385.309763,5 495,114.690236 495,250 C495,385.309763 385.309763,495 250,495 Z M400,409.579729 L398.998499,89 L296.156479,89 C296.156479,89 255.580851,233.077215 248.722463,233.313927 C241.8683,233.546411 207.496069,90.4160442 207.496069,90.4160442 L101.108648,90.4160442 L99,411 C99,411 151.251369,410.11233 229.474183,410.636478 C229.072737,406.91672 228.852999,402.981386 228.489583,399.629377 C228.058558,395.634864 227.306374,391.648804 227.069732,387.658518 C226.837317,383.67246 227.188054,380.273953 226.364033,378.080142 C225.840039,376.693686 223.739843,374.947938 222.104479,374.487194 C218.914039,373.59107 215.237639,372.187708 210.758347,370.298239 C206.029734,368.303096 200.709519,365.107486 196.572512,362.516337 C192.807371,360.153445 189.194356,357.579203 185.93208,354.730207 C182.504997,351.737494 179.018756,348.136092 176.005798,344.555823 C172.811133,340.764207 169.384053,335.975019 166.785217,331.984733 C164.389219,328.307246 162.343957,324.473358 160.400113,320.609882 C158.392883,316.619597 156.309589,312.32074 154.724934,308.038791 C152.954346,303.249603 151.12037,297.323352 149.75968,291.874752 C148.344055,286.189441 147.165071,279.40511 146.214278,273.918466 C145.352225,268.943289 144.050695,262.843733 144.050695,258.950667 C144.050695,256.093217 144.67188,252.567901 146.214278,250.572758 C147.72287,248.624112 150.824569,246.679693 153.309308,246.97981 C155.789822,247.279927 157.801277,249.672407 159.690187,251.768998 C161.553741,253.831773 163.087689,257.319047 164.65544,259.550901 C166.548575,262.243499 169.029089,266.233784 172.456171,268.529044 C175.887477,270.824304 180.700604,272.388292 185.22638,273.318232 C190.073311,274.315804 196.217548,274.015688 201.537765,274.514473 C206.756564,275.004804 213.006444,275.512044 217.143451,276.310947 C220.350793,276.932316 223.587716,277.807303 226.364033,279.303661 C229.317829,280.901465 231.933567,283.792733 234.874688,285.889324 C237.946807,288.083136 241.826043,292.576434 244.800969,292.474985 C247.780121,292.373539 249.774674,287.187012 252.732698,285.293317 C255.648463,283.420757 259.079771,282.131522 262.536432,281.100136 C266.888952,279.802447 271.537273,278.707654 278.847817,277.507187 C286.15836,276.310947 313.346822,269.797144 322.111021,263.14385 C330.879447,256.486328 325.174688,248.243682 334.171304,246.379577 C343.167921,244.515471 343.52711,250.813698 344.807512,254.761712 C346.464004,259.851017 344.913155,269.556205 344.101812,276.911181 C343.273566,284.392966 342.157968,292.234047 339.846483,299.656656 C337.480064,307.239889 333.816342,315.423356 329.915977,322.406356 C326.163513,329.123055 324.468988,331.77761 316.440068,341.56311 C296.274801,366.13042 278.801335,365.001812 275.302414,373.886961 C274.431911,376.097681 278.302697,387.747286 278.847817,389.962232 C279.418292,392.278627 280.031027,394.840189 280.64376,397.401748 C281.873453,402.562912 283.098919,407.71985 283.973649,410.877417 C352.418083,411.004226 400,409.579729 400,409.579729 Z" fill="currentColor" fill-rule="nonzero"></path>
    </g>
</svg>
